<?xml version="1.0" encoding="utf-8"?>
<!-- Generator: Adobe Illustrator 15.1.0, SVG Export Plug-In . SVG Version: 6.00 Build 0)  -->
<!DOCTYPE svg PUBLIC "-//W3C//DTD SVG 1.1//EN" "http://www.w3.org/Graphics/SVG/1.1/DTD/svg11.dtd">
<svg version="1.1" id="svg2" xmlns:svg="http://www.w3.org/2000/svg"
	 xmlns="http://www.w3.org/2000/svg" xmlns:xlink="http://www.w3.org/1999/xlink" x="0px" y="0px" width="820px" height="290px"
	 viewBox="0 0 820 290" enable-background="new 0 0 820 290" xml:space="preserve" style="stroke-width: 0.4">
<g id="g250" transform="matrix(2.9442423,0,0,2.8195353,728.46231,-540.79213)">
	<line id="line252" fill="#FFFFFF" stroke="#FFFFFF" stroke-linecap="round" x1="-2.967" y1="216.818" x2="2.953" y2="213.399"/>
</g>
<g id="g254" transform="matrix(2.9442423,0,0,2.8195353,728.46231,-540.79213)">
	<line id="line256" fill="#FFFFFF" stroke="#FFFFFF" x1="10.816" y1="216.186" x2="13.402" y2="215.345"/>
</g>
<g id="g258" transform="matrix(2.9442423,0,0,2.8195353,728.46231,-540.79213)">
	<line id="line260" fill="#FFFFFF" stroke="#FFFFFF" stroke-linecap="round" x1="8.872" y1="223.646" x2="12.368" y2="226.186"/>
</g>
<g id="g262" transform="matrix(2.9442423,0,0,2.8195353,728.46231,-540.79213)">
	<line id="line264" fill="#FFFFFF" stroke="#FFFFFF" stroke-linecap="round" x1="2.436" y1="213.399" x2="2.436" y2="208.41"/>
	<line id="line266" fill="#FFFFFF" stroke="#FFFFFF" stroke-linecap="round" x1="3.47" y1="213.399" x2="3.47" y2="208.41"/>
</g>
<g id="g268" transform="matrix(2.9442423,0,0,2.8195353,728.46231,-540.79213)">
	<line id="line270" fill="#FFFFFF" stroke="#FFFFFF" stroke-linecap="round" x1="-13.477" y1="220.227" x2="-10.715" y2="216.43"/>
	<line id="line272" fill="#FFFFFF" stroke="#FFFFFF" stroke-linecap="round" x1="-11.876" y1="220.665" x2="-9.805" y2="217.817"/>
</g>
<g id="g274" transform="matrix(2.9442423,0,0,2.8195353,728.46231,-540.79213)">
	<line id="line276" fill="#FFFFFF" stroke="#FFFFFF" x1="-9.462" y1="227.553" x2="-9.462" y2="229.882"/>
</g>
<g id="g278" transform="matrix(2.9442423,0,0,2.8195353,728.46231,-540.79213)">
	<line id="line280" fill="#FFFFFF" stroke="#FFFFFF" stroke-linecap="round" x1="8.872" y1="223.646" x2="4.865" y2="225.96"/>
	<line id="line282" fill="#FFFFFF" stroke="#FFFFFF" stroke-linecap="round" x1="7.595" y1="222.591" x2="4.59" y2="224.326"/>
</g>
<g id="g284" transform="matrix(2.9442423,0,0,2.8195353,728.46231,-540.79213)">
	<line id="line286" fill="#FFFFFF" stroke="#FFFFFF" stroke-linecap="round" x1="2.953" y1="213.399" x2="6.935" y2="215.699"/>
</g>
<g id="g288" transform="matrix(2.9442423,0,0,2.8195353,728.46231,-540.79213)">
	<line id="line290" fill="#FFFFFF" stroke="#FFFFFF" stroke-linecap="round" x1="-2.967" y1="216.818" x2="-2.967" y2="223.646"/>
	<line id="line292" fill="#FFFFFF" stroke="#FFFFFF" stroke-linecap="round" x1="-1.414" y1="217.671" x2="-1.414" y2="222.792"/>
</g>
<g id="g294" transform="matrix(2.9442423,0,0,2.8195353,728.46231,-540.79213)">
	<line id="line296" fill="#FFFFFF" stroke="#FFFFFF" stroke-linecap="round" x1="-7.552" y1="215.328" x2="-2.967" y2="216.818"/>
</g>
<g id="g298" transform="matrix(2.9442423,0,0,2.8195353,728.46231,-540.79213)">
	<line id="line300" fill="#FFFFFF" stroke="#FFFFFF" stroke-linecap="round" x1="8.872" y1="218.758" x2="8.872" y2="223.646"/>
</g>
<g id="g302" transform="matrix(2.9442423,0,0,2.8195353,728.46231,-540.79213)">
	<line id="line304" fill="#FFFFFF" stroke="#FFFFFF" stroke-linecap="round" x1="-2.967" y1="223.646" x2="0.985" y2="225.928"/>
</g>
<g id="g306" transform="matrix(2.9442423,0,0,2.8195353,728.46231,-540.79213)">
	<line id="line308" fill="#FFFFFF" stroke="#FFFFFF" stroke-linecap="round" x1="-11.35" y1="223.156" x2="-13.477" y2="220.227"/>
</g>
<g id="g310" transform="matrix(2.9442423,0,0,2.8195353,728.46231,-540.79213)">
	<line id="line312" fill="#FFFFFF" stroke="#FFFFFF" stroke-linecap="round" x1="-2.967" y1="223.646" x2="-7.552" y2="225.135"/>
</g>
<path id="text314" fill="#FFFFFF" stroke="#FFFFFF" stroke-miterlimit="10" d="M696.691,117.2v-7.832h3.626
	c0.729,0,1.283,0.07,1.662,0.211c0.38,0.141,0.683,0.389,0.91,0.745c0.227,0.356,0.34,0.75,0.34,1.181
	c0,0.556-0.188,1.024-0.563,1.405c-0.376,0.381-0.956,0.624-1.74,0.727c0.286,0.132,0.504,0.262,0.652,0.39
	c0.316,0.278,0.616,0.625,0.898,1.042l1.423,2.131h-1.361l-1.082-1.629c-0.316-0.47-0.577-0.83-0.781-1.079
	c-0.205-0.25-0.388-0.424-0.55-0.523c-0.161-0.1-0.326-0.169-0.493-0.208c-0.123-0.025-0.324-0.038-0.603-0.038h-1.256v3.478
	H696.691L696.691,117.2z M697.773,112.824h2.326c0.495,0,0.882-0.049,1.161-0.147c0.278-0.098,0.49-0.254,0.636-0.47
	c0.145-0.215,0.218-0.449,0.218-0.702c0-0.371-0.141-0.675-0.422-0.914c-0.28-0.239-0.724-0.358-1.33-0.358h-2.589V112.824z"/>
<path id="text316" fill="#FFFFFF" stroke="#FFFFFF" stroke-miterlimit="10" d="M733.223,101.611V93.78h1.11l4.296,6.149V93.78h1.037
	v7.832h-1.11l-4.296-6.154v6.154H733.223z"/>
<path id="text318" fill="#FFFFFF" stroke="#FFFFFF" stroke-miterlimit="10" d="M750.741,72.721v-7.832h1.11l4.295,6.149v-6.149
	h1.038v7.832h-1.11l-4.296-6.154v6.154H750.741L750.741,72.721z"/>
<path id="text320" fill="#FFFFFF" stroke="#FFFFFF" stroke-miterlimit="10" d="M696.662,66.772V58.94h1.11l4.296,6.149V58.94h1.037
	v7.832h-1.109l-4.296-6.154v6.154H696.662z"/>
<path id="text322" fill="#FFFFFF" stroke="#FFFFFF" stroke-miterlimit="10" d="M696.662,97.921v-7.832h1.11l4.296,6.149v-6.149
	h1.037v7.832h-1.109l-4.296-6.154v6.154H696.662L696.662,97.921z"/>
<path id="text324" fill="#FFFFFF" stroke="#FFFFFF" stroke-miterlimit="10" d="M732.905,39.988c0-1.3,0.365-2.317,1.094-3.053
	c0.729-0.736,1.67-1.104,2.823-1.104c0.755,0,1.436,0.173,2.041,0.518c0.606,0.346,1.068,0.828,1.387,1.445
	c0.317,0.618,0.477,1.319,0.477,2.102c0,0.794-0.167,1.505-0.502,2.132s-0.809,1.102-1.423,1.424
	c-0.613,0.322-1.275,0.483-1.985,0.483c-0.771,0-1.458-0.178-2.064-0.534c-0.606-0.356-1.065-0.842-1.378-1.458
	S732.905,40.676,732.905,39.988L732.905,39.988L732.905,39.988z M734.021,40.004c0,0.944,0.265,1.688,0.795,2.23
	s1.194,0.815,1.994,0.815c0.814,0,1.485-0.274,2.011-0.823c0.526-0.549,0.79-1.327,0.79-2.335c0-0.637-0.112-1.194-0.338-1.669
	c-0.225-0.476-0.554-0.844-0.987-1.105c-0.434-0.262-0.92-0.393-1.459-0.393c-0.766,0-1.425,0.252-1.978,0.756
	C734.297,37.984,734.021,38.826,734.021,40.004L734.021,40.004z"/>
<path id="text326" fill="#FFFFFF" stroke="#FFFFFF" stroke-miterlimit="10" d="M769.827,66.762V58.93h1.083v3.216h4.25V58.93h1.083
	v7.832h-1.083V63.07h-4.25v3.691H769.827z"/>
<g id="g6" transform="matrix(4.6146498,0,0,4.5182272,-1294.6273,-100.54473)">
	<line id="line8" fill="none" stroke="#FFFFFF" stroke-linecap="round" x1="348.504" y1="45.87" x2="351.969" y2="44.486"/>
</g>
<g id="g10" transform="matrix(4.6146498,0,0,4.5182272,-1294.6273,-100.54473)">
	<line id="line12" fill="none" stroke="#FFFFFF" x1="309.655" y1="39.189" x2="310.464" y2="38.179"/>
	<line id="line14" fill="none" stroke="#FFFFFF" x1="308.836" y1="38.533" x2="309.645" y2="37.523"/>
	<line id="line16" fill="none" stroke="#FFFFFF" x1="308.017" y1="37.876" x2="308.826" y2="36.867"/>
	<line id="line18" fill="none" stroke="#FFFFFF" x1="307.198" y1="37.22" x2="308.006" y2="36.211"/>
	<line id="line20" fill="none" stroke="#FFFFFF" x1="306.378" y1="36.564" x2="307.187" y2="35.555"/>
	<line id="line22" fill="none" stroke="#FFFFFF" x1="305.559" y1="35.908" x2="306.368" y2="34.898"/>
	<line id="line24" fill="none" stroke="#FFFFFF" x1="304.74" y1="35.251" x2="305.549" y2="34.242"/>
</g>
<g id="g26" transform="matrix(4.6146498,0,0,4.5182272,-1294.6273,-100.54473)">
	<line id="line28" fill="none" stroke="#FFFFFF" x1="328.169" y1="40.815" x2="323.771" y2="38.569"/>
</g>
<g id="g30" transform="matrix(4.6146498,0,0,4.5182272,-1294.6273,-100.54473)">
	<line id="line32" fill="none" stroke="#FFFFFF" stroke-linecap="round" x1="357.46" y1="49.53" x2="359.896" y2="52.973"/>
</g>
<g id="g34" transform="matrix(4.6146498,0,0,4.5182272,-1294.6273,-100.54473)">
	<polygon id="polygon36" fill="#FFFFFF" stroke="#FFFFFF" points="288.838,30.351 289.851,29.546 291.793,32.824 291.591,32.985 
		291.591,32.985 	"/>
</g>
<g id="g38" transform="matrix(4.6146498,0,0,4.5182272,-1294.6273,-100.54473)">
	<polygon id="polygon40" fill="#FFFFFF" stroke="#FFFFFF" points="305.924,40.887 305.917,39.593 310.059,40.088 310.06,40.347 
		310.06,40.347 	"/>
</g>
<g id="g42" transform="matrix(4.6146498,0,0,4.5182272,-1294.6273,-100.54473)">
	<polygon id="polygon44" fill="none" stroke="#FFFFFF" stroke-linecap="round" points="358.02,49.853 356.9,49.207 359.46,45.805 
		359.684,45.934 359.684,45.934 	"/>
</g>
<g id="g46" transform="matrix(4.6146498,0,0,4.5182272,-1294.6273,-100.54473)">
	<line id="line48" fill="none" stroke="#FFFFFF" x1="331.447" y1="43.66" x2="333.406" y2="46.505"/>
	<line id="line50" fill="none" stroke="#FFFFFF" x1="330.413" y1="44.895" x2="331.883" y2="47.03"/>
</g>
<g id="g52" transform="matrix(4.6146498,0,0,4.5182272,-1294.6273,-100.54473)">
	<line id="line54" fill="none" stroke="#FFFFFF" stroke-linecap="round" x1="359.572" y1="45.87" x2="362.307" y2="42.107"/>
</g>
<g id="g56" transform="matrix(4.6146498,0,0,4.5182272,-1294.6273,-100.54473)">
	<line id="line58" fill="none" stroke="#FFFFFF" stroke-linecap="round" x1="350.617" y1="49.53" x2="348.49" y2="52.455"/>
</g>
<g id="g60" transform="matrix(4.6146498,0,0,4.5182272,-1294.6273,-100.54473)">
	<line id="line62" fill="none" stroke="#FFFFFF" x1="319.632" y1="38.161" x2="313.94" y2="39.679"/>
</g>
<g id="g64" transform="matrix(4.6146498,0,0,4.5182272,-1294.6273,-100.54473)">
	<line id="line66" fill="none" stroke="#FFFFFF" x1="336.447" y1="38.859" x2="332.049" y2="40.969"/>
</g>
<g id="g68" transform="matrix(4.6146498,0,0,4.5182272,-1294.6273,-100.54473)">
	<line id="line70" fill="none" stroke="#FFFFFF" x1="329.591" y1="44.009" x2="328.502" y2="43.31"/>
	<line id="line72" fill="none" stroke="#FFFFFF" x1="329.093" y1="44.785" x2="328.004" y2="44.086"/>
	<line id="line74" fill="none" stroke="#FFFFFF" x1="328.595" y1="45.561" x2="327.507" y2="44.863"/>
	<line id="line76" fill="none" stroke="#FFFFFF" x1="328.098" y1="46.337" x2="327.009" y2="45.639"/>
</g>
<g id="g78" transform="matrix(4.6146498,0,0,4.5182272,-1294.6273,-100.54473)">
	<line id="line80" fill="#FFFFFF" stroke="#FFFFFF" x1="357.46" y1="49.53" x2="350.617" y2="49.53"/>
</g>
<g id="g82" transform="matrix(4.6146498,0,0,4.5182272,-1294.6273,-100.54473)">
	<line id="line84" fill="#FFFFFF" stroke="#FFFFFF" x1="311.961" y1="42.107" x2="311.961" y2="45.988"/>
	<line id="line86" fill="#FFFFFF" stroke="#FFFFFF" x1="310.408" y1="42.592" x2="310.408" y2="45.503"/>
</g>
<g id="g88" transform="matrix(4.6146498,0,0,4.5182272,-1294.6273,-100.54473)">
	<line id="line90" fill="none" stroke="#FFFFFF" x1="291.692" y1="36.457" x2="288.07" y2="38.249"/>
	<line id="line92" fill="none" stroke="#FFFFFF" x1="291.928" y1="38.072" x2="289.212" y2="39.416"/>
</g>
<g id="g94" transform="matrix(4.6146498,0,0,4.5182272,-1294.6273,-100.54473)">
	<line id="line96" fill="none" stroke="#FFFFFF" x1="294.444" y1="37.162" x2="293.152" y2="37.222"/>
	<line id="line98" fill="none" stroke="#FFFFFF" x1="294.492" y1="38.197" x2="293.2" y2="38.257"/>
	<line id="line100" fill="none" stroke="#FFFFFF" x1="294.541" y1="39.232" x2="293.248" y2="39.292"/>
</g>
<g id="g102" transform="matrix(4.6146498,0,0,4.5182272,-1294.6273,-100.54473)">
	<line id="line104" fill="none" stroke="#FFFFFF" stroke-linecap="round" x1="348.504" y1="45.87" x2="345.084" y2="39.948"/>
</g>
<g id="g106" transform="matrix(4.6146498,0,0,4.5182272,-1294.6273,-100.54473)">
	<polygon id="polygon108" fill="none" stroke="#FFFFFF" stroke-linecap="round" points="351.177,49.207 350.056,49.853 
		348.392,45.934 348.616,45.805 348.616,45.805 	"/>
</g>
<g id="g110" transform="matrix(4.6146498,0,0,4.5182272,-1294.6273,-100.54473)">
	<line id="line112" fill="none" stroke="#FFFFFF" stroke-linecap="round" x1="345.084" y1="39.948" x2="340.586" y2="38.486"/>
</g>
<g id="g114" transform="matrix(4.6146498,0,0,4.5182272,-1294.6273,-100.54473)">
	<line id="line116" fill="#FFFFFF" stroke="#FFFFFF" x1="301.005" y1="33.605" x2="295.573" y2="34.984"/>
</g>
<g id="g118" transform="matrix(4.6146498,0,0,4.5182272,-1294.6273,-100.54473)">
	<line id="line120" fill="none" stroke="#FFFFFF" stroke-linecap="round" x1="356.108" y1="44.486" x2="359.572" y2="45.87"/>
</g>
<path id="text122" fill="#FFFFFF" d="M332.003,94.113c0-2.083,0.571-3.714,1.714-4.893c1.143-1.179,2.617-1.768,4.424-1.768
	c1.184,0,2.25,0.277,3.2,0.831s1.675,1.325,2.173,2.315s0.747,2.113,0.747,3.369c0,1.272-0.262,2.411-0.786,3.416
	c-0.525,1.004-1.269,1.765-2.229,2.282c-0.962,0.517-2,0.774-3.113,0.774c-1.206,0-2.285-0.285-3.235-0.856s-1.67-1.35-2.159-2.337
	C332.247,96.259,332.003,95.215,332.003,94.113L332.003,94.113z M333.751,94.139c0,1.513,0.416,2.704,1.246,3.574
	c0.831,0.871,1.873,1.306,3.126,1.306c1.276,0,2.327-0.439,3.152-1.318s1.237-2.126,1.237-3.741c0-1.021-0.177-1.913-0.529-2.675
	c-0.353-0.762-0.868-1.353-1.548-1.772c-0.679-0.419-1.44-0.629-2.286-0.629c-1.201,0-2.234,0.404-3.1,1.211
	S333.751,92.25,333.751,94.139L333.751,94.139z"/>
<path id="text124" fill="#FFFFFF" d="M260.375,67.794c0-2.083,0.571-3.714,1.714-4.893c1.143-1.178,2.617-1.768,4.424-1.768
	c1.184,0,2.25,0.277,3.2,0.831c0.95,0.553,1.675,1.325,2.173,2.315c0.499,0.99,0.748,2.113,0.748,3.369
	c0,1.273-0.263,2.412-0.787,3.416s-1.268,1.765-2.229,2.281c-0.962,0.517-2,0.775-3.113,0.775c-1.206,0-2.284-0.285-3.234-0.856
	s-1.671-1.35-2.16-2.337S260.375,68.896,260.375,67.794L260.375,67.794z M262.124,67.82c0,1.512,0.415,2.704,1.246,3.574
	c0.83,0.87,1.872,1.306,3.125,1.306c1.277,0,2.328-0.439,3.152-1.318c0.825-0.879,1.237-2.126,1.237-3.741
	c0-1.021-0.177-1.914-0.529-2.675c-0.353-0.762-0.868-1.353-1.547-1.772c-0.68-0.419-1.441-0.629-2.287-0.629
	c-1.2,0-2.233,0.404-3.1,1.211C262.556,64.583,262.124,65.931,262.124,67.82L262.124,67.82z"/>
<path id="text126" fill="#FFFFFF" d="M222.689,92.071V79.521h4.835c0.852,0,1.501,0.04,1.95,0.12
	c0.629,0.103,1.157,0.298,1.582,0.586c0.426,0.288,0.769,0.692,1.027,1.211c0.26,0.52,0.39,1.09,0.39,1.712
	c0,1.067-0.347,1.971-1.041,2.71c-0.693,0.739-1.946,1.108-3.76,1.108h-3.287v5.103H222.689z M224.385,85.488h3.313
	c1.096,0,1.874-0.2,2.335-0.599c0.46-0.4,0.69-0.962,0.69-1.687c0-0.525-0.136-0.975-0.406-1.349
	c-0.271-0.374-0.628-0.621-1.071-0.74c-0.286-0.074-0.813-0.111-1.583-0.111h-3.278V85.488L224.385,85.488z"/>
<path id="text128" fill="#FFFFFF" d="M182.778,66.626c0-2.083,0.571-3.714,1.714-4.893c1.143-1.179,2.617-1.768,4.424-1.768
	c1.184,0,2.25,0.277,3.2,0.831c0.95,0.553,1.675,1.325,2.173,2.315s0.747,2.113,0.748,3.369c-0.001,1.273-0.263,2.412-0.787,3.416
	c-0.525,1.004-1.269,1.765-2.229,2.282c-0.962,0.516-2,0.774-3.113,0.774c-1.206,0-2.285-0.285-3.235-0.856s-1.67-1.35-2.159-2.337
	C183.022,68.771,182.778,67.727,182.778,66.626L182.778,66.626z M184.526,66.651c0,1.513,0.416,2.704,1.246,3.574
	c0.831,0.87,1.873,1.306,3.126,1.306c1.276,0,2.327-0.439,3.152-1.318c0.824-0.879,1.237-2.126,1.237-3.741
	c0-1.021-0.177-1.914-0.529-2.675c-0.353-0.762-0.868-1.353-1.548-1.772c-0.679-0.42-1.44-0.629-2.286-0.629
	c-1.201,0-2.234,0.404-3.1,1.211S184.526,64.762,184.526,66.651L184.526,66.651L184.526,66.651z"/>
<path id="text130" fill="#FFFFFF" d="M139.123,84.625v-12.55h4.836c0.851,0,1.501,0.04,1.949,0.12
	c0.63,0.103,1.157,0.298,1.583,0.586c0.426,0.289,0.768,0.692,1.027,1.211c0.259,0.52,0.389,1.09,0.389,1.712
	c0,1.067-0.347,1.97-1.04,2.709s-1.947,1.109-3.76,1.108h-3.288v5.103H139.123z M140.819,78.042h3.314
	c1.096,0,1.874-0.2,2.334-0.599c0.461-0.399,0.691-0.961,0.691-1.687c0-0.525-0.136-0.975-0.407-1.348
	c-0.271-0.374-0.628-0.621-1.071-0.741c-0.285-0.074-0.812-0.111-1.582-0.111h-3.279V78.042L140.819,78.042z"/>
<path id="text132" fill="#FFFFFF" d="M96.824,46.323c0-2.083,0.571-3.714,1.714-4.893s2.617-1.768,4.425-1.768
	c1.183,0,2.25,0.277,3.2,0.831s1.674,1.326,2.173,2.316c0.498,0.99,0.747,2.113,0.747,3.369c0,1.272-0.263,2.411-0.787,3.416
	c-0.524,1.005-1.268,1.765-2.229,2.282s-1.999,0.775-3.112,0.775c-1.207,0-2.285-0.286-3.235-0.856c-0.95-0.57-1.67-1.35-2.16-2.337
	C97.069,48.469,96.824,47.424,96.824,46.323L96.824,46.323L96.824,46.323z M98.573,46.349c0,1.512,0.415,2.704,1.246,3.574
	c0.83,0.87,1.872,1.305,3.126,1.305c1.276,0,2.327-0.439,3.151-1.318c0.825-0.879,1.237-2.126,1.237-3.741
	c0-1.021-0.176-1.913-0.528-2.675c-0.353-0.762-0.869-1.353-1.548-1.772s-1.441-0.629-2.286-0.629c-1.201,0-2.234,0.404-3.1,1.211
	C99.006,43.111,98.573,44.459,98.573,46.349L98.573,46.349L98.573,46.349z"/>
<path id="text134" fill="#FFFFFF" d="M54.363,63.154v-12.55h4.836c0.851,0,1.501,0.04,1.949,0.12
	c0.63,0.103,1.157,0.298,1.583,0.586s0.768,0.692,1.027,1.211c0.26,0.519,0.389,1.09,0.389,1.712c0,1.067-0.347,1.971-1.04,2.709
	c-0.693,0.739-1.947,1.109-3.76,1.109h-3.288v5.103H54.363z M56.059,56.57h3.314c1.096,0,1.874-0.2,2.334-0.599
	c0.461-0.4,0.691-0.962,0.691-1.687c0-0.525-0.136-0.975-0.407-1.349c-0.271-0.374-0.628-0.621-1.071-0.74
	c-0.285-0.074-0.812-0.111-1.582-0.111h-3.279V56.57L56.059,56.57z"/>
<path id="text136" fill="#FFFFFF" d="M244.855,119.131c0-2.083,0.571-3.714,1.714-4.893c1.143-1.179,2.617-1.768,4.424-1.768
	c1.184,0,2.251,0.277,3.2,0.831c0.95,0.554,1.675,1.325,2.173,2.315c0.499,0.99,0.748,2.113,0.748,3.369
	c0,1.272-0.263,2.411-0.787,3.416s-1.268,1.765-2.229,2.282c-0.962,0.516-1.999,0.774-3.112,0.774c-1.207,0-2.285-0.285-3.235-0.856
	s-1.67-1.35-2.16-2.337C245.1,121.276,244.855,120.232,244.855,119.131L244.855,119.131z M246.604,119.156
	c0,1.513,0.415,2.704,1.246,3.574c0.83,0.871,1.872,1.306,3.126,1.306c1.276,0,2.327-0.439,3.151-1.318
	c0.825-0.879,1.237-2.126,1.237-3.741c0-1.021-0.176-1.914-0.528-2.675c-0.354-0.762-0.869-1.353-1.548-1.772
	c-0.68-0.419-1.441-0.629-2.287-0.629c-1.2,0-2.233,0.404-3.1,1.211C247.037,115.919,246.604,117.267,246.604,119.156
	L246.604,119.156z"/>
<path id="text138" fill="#FFFFFF" d="M137.414,116.419c0-2.083,0.571-3.714,1.714-4.893c1.142-1.179,2.617-1.768,4.424-1.768
	c1.184,0,2.25,0.277,3.2,0.831s1.675,1.326,2.173,2.316s0.747,2.113,0.747,3.369c0,1.272-0.262,2.411-0.786,3.416
	c-0.525,1.004-1.269,1.765-2.23,2.281c-0.961,0.517-1.999,0.775-3.112,0.775c-1.207,0-2.285-0.286-3.235-0.856
	c-0.95-0.57-1.67-1.35-2.159-2.337C137.658,118.565,137.414,117.521,137.414,116.419L137.414,116.419L137.414,116.419z
	 M139.162,116.444c0,1.513,0.416,2.704,1.246,3.574c0.831,0.871,1.873,1.306,3.126,1.306c1.276,0,2.327-0.439,3.152-1.318
	c0.824-0.879,1.237-2.126,1.237-3.741c0-1.021-0.177-1.913-0.529-2.675c-0.353-0.762-0.868-1.353-1.548-1.772
	c-0.679-0.419-1.441-0.629-2.286-0.629c-1.201,0-2.234,0.404-3.1,1.211S139.162,114.556,139.162,116.444L139.162,116.444
	L139.162,116.444z"/>
<path id="text140" fill="#FFFFFF" d="M18.034,74.036c0-2.083,0.571-3.714,1.713-4.893c1.143-1.179,2.618-1.768,4.425-1.768
	c1.184,0,2.25,0.277,3.2,0.83c0.95,0.554,1.675,1.326,2.173,2.316s0.747,2.113,0.747,3.369c0,1.273-0.262,2.412-0.786,3.416
	c-0.525,1.004-1.269,1.765-2.23,2.281c-0.961,0.517-1.999,0.775-3.112,0.775c-1.207,0-2.285-0.286-3.235-0.856
	c-0.95-0.571-1.67-1.35-2.159-2.337C18.278,76.182,18.034,75.138,18.034,74.036L18.034,74.036L18.034,74.036z M19.782,74.062
	c0,1.512,0.416,2.704,1.246,3.574c0.831,0.87,1.873,1.305,3.126,1.305c1.276,0,2.327-0.439,3.152-1.318
	c0.824-0.879,1.237-2.126,1.237-3.741c0-1.022-0.177-1.914-0.529-2.675c-0.353-0.762-0.868-1.353-1.548-1.772
	c-0.679-0.419-1.441-0.629-2.286-0.629c-1.201,0-2.234,0.404-3.1,1.211C20.215,70.824,19.782,72.173,19.782,74.062L19.782,74.062
	L19.782,74.062z"/>
<path id="text142" fill="#FFFFFF" d="M201.879,115.811c0-2.083,0.571-3.714,1.714-4.893c1.143-1.178,2.617-1.768,4.424-1.768
	c1.184,0,2.25,0.277,3.2,0.83c0.95,0.554,1.675,1.326,2.173,2.316c0.499,0.99,0.748,2.113,0.748,3.369
	c0,1.273-0.263,2.412-0.787,3.416s-1.268,1.765-2.229,2.281s-2,0.775-3.113,0.775c-1.206,0-2.285-0.285-3.234-0.856
	c-0.95-0.571-1.671-1.35-2.16-2.337S201.879,116.913,201.879,115.811L201.879,115.811z M203.628,115.837
	c0,1.512,0.415,2.704,1.246,3.574c0.83,0.87,1.872,1.306,3.125,1.306c1.277,0,2.327-0.439,3.152-1.318
	c0.825-0.879,1.237-2.126,1.237-3.741c0-1.022-0.177-1.914-0.529-2.675c-0.353-0.762-0.868-1.353-1.547-1.772
	c-0.68-0.419-1.441-0.629-2.287-0.629c-1.2,0-2.233,0.404-3.1,1.211C204.06,112.6,203.628,113.948,203.628,115.837L203.628,115.837z
	"/>
<g id="g144" transform="matrix(4.6146498,0,0,4.5182272,-1297.8755,-116.78568)">
	<ellipse id="ellipse146" fill="none" stroke="#FFFFFF" stroke-linecap="round" cx="324.533" cy="54.175" rx="1.293" ry="1.294"/>
	<line id="line148" fill="none" stroke="#FFFFFF" stroke-linecap="round" x1="323.757" y1="54.175" x2="325.309" y2="54.175"/>
</g>
<path id="text150" fill="#FFFFFF" d="M100.406,78.712c0-2.083,0.571-3.714,1.714-4.893c1.142-1.179,2.617-1.768,4.424-1.768
	c1.184,0,2.25,0.277,3.2,0.831s1.675,1.325,2.173,2.315s0.747,2.113,0.747,3.369c0,1.273-0.262,2.412-0.786,3.416
	c-0.525,1.004-1.269,1.765-2.229,2.282c-0.962,0.516-2,0.774-3.113,0.774c-1.207,0-2.285-0.285-3.235-0.856s-1.67-1.35-2.159-2.337
	C100.65,80.857,100.406,79.813,100.406,78.712L100.406,78.712L100.406,78.712z M102.154,78.737c0,1.513,0.416,2.704,1.246,3.574
	c0.831,0.871,1.873,1.306,3.126,1.306c1.276,0,2.327-0.439,3.152-1.318c0.824-0.879,1.237-2.126,1.237-3.741
	c0-1.021-0.177-1.914-0.529-2.675c-0.353-0.762-0.868-1.353-1.548-1.772c-0.679-0.42-1.441-0.629-2.286-0.629
	c-1.201,0-2.234,0.404-3.1,1.211S102.154,76.848,102.154,78.737L102.154,78.737L102.154,78.737z"/>
<path id="text158" fill="#FFFFFF" d="M55.042,86.426c0-2.083,0.571-3.714,1.713-4.893c1.143-1.179,2.618-1.768,4.425-1.768
	c1.184,0,2.25,0.277,3.2,0.831s1.675,1.326,2.173,2.315c0.498,0.99,0.747,2.113,0.747,3.369c0,1.272-0.262,2.411-0.786,3.416
	c-0.525,1.004-1.269,1.765-2.23,2.282c-0.961,0.516-1.999,0.774-3.112,0.774c-1.207,0-2.285-0.285-3.235-0.856
	s-1.67-1.35-2.159-2.337C55.286,88.572,55.042,87.527,55.042,86.426L55.042,86.426L55.042,86.426z M56.79,86.452
	c0,1.513,0.416,2.704,1.246,3.574c0.831,0.871,1.873,1.306,3.126,1.306c1.276,0,2.327-0.439,3.152-1.318
	c0.824-0.879,1.237-2.126,1.237-3.741c0-1.021-0.177-1.914-0.529-2.675s-0.868-1.353-1.548-1.772
	c-0.679-0.419-1.441-0.629-2.286-0.629c-1.201,0-2.234,0.404-3.1,1.211C57.222,83.214,56.79,84.562,56.79,86.452L56.79,86.452
	L56.79,86.452z"/>
<g id="g160" transform="matrix(4.6146498,0,0,4.5182272,-1274.1713,-123.79474)">
	<ellipse id="ellipse162" fill="none" stroke="#FFFFFF" stroke-linecap="round" cx="290.902" cy="49.391" rx="1.293" ry="1.293"/>
	<line id="line164" fill="none" stroke="#FFFFFF" stroke-linecap="round" x1="290.126" y1="49.391" x2="291.678" y2="49.391"/>
</g>
<path id="text166" fill="#FFFFFF" d="M26.39,23.869c0-2.083,0.571-3.714,1.714-4.893s2.617-1.768,4.424-1.768
	c1.184,0,2.25,0.277,3.2,0.831s1.675,1.326,2.173,2.315c0.498,0.99,0.748,2.113,0.748,3.369c0,1.272-0.263,2.411-0.787,3.416
	s-1.269,1.765-2.229,2.282c-0.962,0.517-2,0.774-3.113,0.774c-1.206,0-2.285-0.285-3.235-0.856c-0.949-0.571-1.67-1.35-2.159-2.337
	S26.39,24.971,26.39,23.869L26.39,23.869L26.39,23.869z M28.138,23.894c0,1.513,0.416,2.704,1.246,3.574
	c0.831,0.871,1.873,1.306,3.126,1.306c1.276,0,2.327-0.439,3.152-1.318S36.9,25.33,36.9,23.715c0-1.021-0.177-1.913-0.529-2.675
	c-0.353-0.762-0.868-1.353-1.548-1.772c-0.679-0.419-1.44-0.629-2.286-0.629c-1.201,0-2.234,0.404-3.1,1.211
	S28.138,22.006,28.138,23.894L28.138,23.894L28.138,23.894z"/>
<g id="g168" transform="matrix(4.6146498,0,0,4.5182272,-1308.354,-94.41835)">
	<ellipse id="ellipse170" fill="none" stroke="#FFFFFF" stroke-linecap="round" cx="287.839" cy="24.271" rx="1.293" ry="1.293"/>
	<line id="line172" fill="none" stroke="#FFFFFF" stroke-linecap="round" x1="287.063" y1="24.271" x2="288.615" y2="24.271"/>
</g>
<path id="path9883" fill="#FFFFFF" stroke="#FFFFFF" stroke-miterlimit="10" d="M258.313,35.281v3.531h1.188v-3.531H258.313z
	 M258.313,39.969v3.5h1.188v-3.5H258.313z M258.313,44.656v3.5h1.188v-3.5H258.313z M258.313,49.312v3.5h1.188v-3.5H258.313z
	 M258.313,54v3.5h1.188V54H258.313z M258.313,58.688v3.5h1.188v-3.5H258.313z M258.313,63.344v3.5h1.188v-3.5H258.313z
	 M258.313,68.031v3.5h1.188v-3.5H258.313z M258.313,72.688v3.5h1.188v-3.5H258.313z M258.313,77.375v3.5h1.188v-3.5H258.313z
	 M258.313,82.062v3.5h1.188v-3.5H258.313z M258.313,86.719v3.5h1.188v-3.5H258.313z M258.313,91.406v3.5h1.188v-3.5H258.313z
	 M258.313,96.062v3.5h1.188v-3.5H258.313z M258.313,100.75v3.5h1.188v-3.5H258.313z M258.313,105.438v3.5h1.188v-3.5H258.313z
	 M258.313,110.094v3.5h1.188v-3.5H258.313z M258.313,114.781v3.5h1.188v-3.5H258.313z M258.313,119.438v3.5h1.188v-3.5H258.313z
	 M258.313,124.125v3.5h1.188v-3.5H258.313z M258.313,128.812v3.5h1.188v-3.5H258.313z M258.313,133.469v3.5h1.188v-3.5H258.313z
	 M258.313,138.156v3.5h1.188v-3.5H258.313z M258.313,142.812v3.531h1.188v-3.531H258.313z M258.313,147.5v3.5h1.188v-3.5H258.313z
	 M258.313,152.188v3.5h1.188v-3.5H258.313z M258.313,156.844v3.5h1.188v-3.5H258.313z M258.313,161.531v3.5h1.188v-3.5H258.313z
	 M258.313,166.188v3.531h1.188v-3.531H258.313z M258.313,170.875v3.5h1.188v-3.5H258.313z M258.313,175.562v3.5h1.188v-3.5H258.313z
	 M258.313,180.219v3.531h1.188v-3.531H258.313z M407.157,182.969l-1.188,0.062l0.093,1.969l1.188-0.062L407.157,182.969z
	 M258.313,184.906v3.5h1.188v-3.5H258.313z M407.313,186.094l-1.188,0.062l0.156,3.5l1.188-0.062L407.313,186.094z M258.313,189.594
	v2.094v0.594h0.594h1.438v-1.156l-0.844-0.031v-1.5H258.313L258.313,189.594z M407.532,190.781l-1.188,0.062l0.03,0.688h-1.594
	v1.188H407h0.625l-0.03-0.625L407.532,190.781z M261.532,191.125v1.156h3.562l0.031-1.156H261.532L261.532,191.125z
	 M266.313,191.125v1.188h3.562v-1.156L266.313,191.125L266.313,191.125z M271.063,191.156v1.156h3.594v-1.156H271.063z
	 M275.844,191.156v1.188h3.594v-1.188H275.844z M280.626,191.188v1.156h3.594v-1.156H280.626z M285.407,191.188v1.156l3.562,0.031
	l0.031-1.188H285.407L285.407,191.188z M290.188,191.188v1.188h3.562v-1.156L290.188,191.188L290.188,191.188z M376.938,191.438
	v1.188h2.781v-1.156L376.938,191.438L376.938,191.438z M380.907,191.469v1.156l3.562,0.031l0.03-1.188H380.907L380.907,191.469z
	 M385.688,191.469v1.188h3.562V191.5L385.688,191.469z M390.469,191.5l-0.031,1.156h3.594V191.5H390.469L390.469,191.5z
	 M395.219,191.5v1.188h3.594v-1.156L395.219,191.5L395.219,191.5z M400.001,191.531v1.156h3.594v-1.156H400.001z"/>
<path id="path10854" fill="#FFFFFF" stroke="#FFFFFF" stroke-miterlimit="10" d="M176.501,34.719v3.5h1.188v-3.5H176.501z
	 M176.501,39.375v3.5h1.188v-3.5H176.501z M176.501,44.062v3.5h1.188v-3.5H176.501z M176.501,48.719v3.531h1.188v-3.531H176.501z
	 M176.501,53.406v3.5h1.188v-3.5H176.501z M176.501,58.094v3.5h1.188v-3.5H176.501z M176.501,62.75v3.5h1.188v-3.5H176.501z
	 M176.501,67.438v3.5h1.188v-3.5H176.501z M176.501,72.094v3.531h1.188v-3.531H176.501z M176.501,76.781v3.5h1.188v-3.5H176.501z
	 M176.501,81.469v3.5h1.188v-3.5H176.501z M176.501,86.125v3.5h1.188v-3.5H176.501z M176.501,90.812v3.5h1.188v-3.5H176.501z
	 M176.501,95.5V99h1.188v-3.5H176.501z M176.501,100.156v3.5h1.188v-3.5H176.501z M176.501,104.844v3.5h1.188v-3.5H176.501z
	 M176.501,109.5v3.531h1.188V109.5H176.501z M176.501,114.188v3.5h1.188v-3.5H176.501z M176.501,118.875v3.5h1.188v-3.5H176.501z
	 M176.501,123.531v3.5h1.188v-3.5H176.501z M176.501,128.219v3.5h1.188v-3.5H176.501z M176.501,132.875v3.531h1.188v-3.531H176.501z
	 M176.501,137.562v3.5h1.188v-3.5H176.501z M176.501,142.25v3.5h1.188v-3.5H176.501z M176.501,146.906v3.5h1.188v-3.5H176.501z
	 M176.501,151.594v3.5h1.188v-3.5H176.501z M176.501,156.25v3.531h1.188v-3.531H176.501z M176.501,160.938v3.5h1.188v-3.5H176.501z
	 M176.501,165.625v3.5h1.188v-3.5H176.501z M176.501,170.281v3.5h1.188v-3.5H176.501z M176.501,174.969v3.5h1.188v-3.5H176.501z
	 M176.501,179.625v3.531h1.188v-3.531H176.501z M176.501,184.312v3.5h1.188v-3.5H176.501z M176.501,189v3.5h1.188V189H176.501z
	 M176.501,193.656v3.531h1.188v-3.531H176.501z M176.501,198.344v3.5h1.188v-3.5H176.501z M176.501,203v3.531h1.188V203H176.501z
	 M176.501,207.688v3.5h1.188v-3.5H176.501z M407.969,209.062l-1.188,0.062l0.125,2.875l1.188-0.062L407.969,209.062z
	 M176.501,212.375v3.5h1.188v-3.5H176.501z M408.157,213.094l-1.188,0.062l0.188,3.5l1.188-0.062L408.157,213.094z M176.501,217.031
	v1.625v0.562h0.594h1.938v-1.156h-1.344v-1.031H176.501z M403.469,217.625l-3.594,0.031v1.156h3.594V217.625L403.469,217.625z
	 M404.657,217.625v1.188l3.156-0.031h0.625l-0.031-0.594v-0.406h-0.594v-0.156H404.657L404.657,217.625z M387.782,217.656v1.188
	h1.375v-1.188H387.782z M390.344,217.656v1.188l3.562-0.031v-1.156H390.344L390.344,217.656z M395.094,217.656l0.03,1.156h3.562
	v-1.156H395.094L395.094,217.656z M180.219,218.062v1.156h3.594v-1.156H180.219z"/>
<path id="path11857" fill="#FFFFFF" stroke="#FFFFFF" stroke-miterlimit="10" d="M82.657,32.938l-0.031,3.5h1.219v-3.5H82.657z
	 M82.626,37.625v3.5h1.188v-3.5H82.626z M82.626,42.281v3.5h1.188v-3.5H82.626z M82.626,46.969l-0.031,3.5h1.219v-3.5H82.626z
	 M82.594,51.625v3.531h1.188v-3.531H82.594z M82.594,56.312v3.5h1.188v-3.5H82.594z M82.594,61l-0.031,3.5h1.219V61H82.594z
	 M82.563,65.656v3.5h1.188l0.031-3.5H82.563z M82.563,70.344v3.5h1.188v-3.5H82.563z M82.563,75v3.531h1.188V75H82.563z
	 M82.532,79.688v3.5h1.188l0.031-3.5H82.532z M82.532,84.375v3.5h1.188v-3.5H82.532z M82.532,89.031v3.5l1.188,0.031v-3.531H82.532z
	 M82.501,93.719v3.5h1.188l0.031-3.5H82.501z M82.501,98.375v3.531h1.188v-3.5L82.501,98.375z M82.501,103.062v3.5h1.188v-3.5
	H82.501z M82.501,107.75l-0.031,3.5h1.219v-3.5H82.501z M82.469,112.406v3.531h1.188l0.031-3.531H82.469z M82.469,117.094v3.5h1.188
	v-3.5H82.469z M82.469,121.75l-0.031,3.531h1.219v-3.5L82.469,121.75L82.469,121.75z M82.438,126.438v3.5l1.188,0.031l0.031-3.531
	H82.438L82.438,126.438z M82.438,131.125v3.5h1.188v-3.5H82.438z M82.438,135.781l-0.031,3.531h1.219v-3.531H82.438z
	 M82.407,140.469v3.5h1.188l0.031-3.5H82.407z M82.407,145.156v3.5h1.188v-3.5H82.407z M82.407,149.812l-0.031,3.531h1.219v-3.531
	H82.407z M82.376,154.5v3.5h1.188l0.031-3.5H82.376z M82.376,159.156v3.531h1.188v-3.5L82.376,159.156L82.376,159.156z
	 M82.376,163.844l-0.031,3.5h1.219v-3.5H82.376z M82.344,168.531v3.5h1.219v-3.5H82.344z M82.344,173.188v3.531h1.188v-3.531H82.344
	z M82.344,177.875v3.5h1.188v-3.5H82.344z M82.313,182.562v3.5h1.219v-3.5H82.313z M82.313,187.219v3.5h1.188v-3.5H82.313z
	 M82.313,191.906v3.5h1.188v-3.5H82.313z M82.313,196.562l-0.031,3.531h1.219v-3.5L82.313,196.562L82.313,196.562z M82.282,201.25
	v3.5h1.188l0.031-3.5H82.282z M82.282,205.938v3.5h1.188v-3.5H82.282z M82.282,210.594v3.531h1.188v-3.531H82.282z M82.251,215.281
	v3.5h1.188l0.031-3.5H82.251z M82.251,219.969v3.5h1.188v-3.5H82.251z M82.251,224.625v3.5h1.188v-3.5H82.251z M82.219,229.312v3.5
	h1.188l0.031-3.5H82.219z M82.219,233.969v3.531h1.188v-3.531H82.219z M407.751,234.562l-1.188,0.062v0.25l1.188-0.062V234.562z
	 M407.813,236l-1.188,0.062l0.156,3.5l1.219-0.062L407.813,236z M82.219,238.656v3.5h1.188v-3.5H82.219z M408.032,240.656
	l-1.188,0.062l0.156,3.031h0.125v0.562h0.469h0.625l-0.031-0.625L408.032,240.656L408.032,240.656z M82.813,243.125v0.219h-0.594
	v0.375l-0.031,0.594h0.625h3.156v-1.188H82.813z M87.188,243.125v1.188h3.562v-1.188H87.188z M91.938,243.125v1.188h3.594v-1.188
	H91.938z M96.719,243.125v1.188h3.594v-1.188H96.719z M101.501,243.125v1.188h3.594v-1.188H101.501z M106.282,243.125v1.188h3.562
	v-1.188H106.282z M111.063,243.125v1.188h3.562v-1.188H111.063z M115.813,243.125v1.188h3.594v-1.188H115.813z M120.594,243.125
	v1.188h3.594v-1.188H120.594z M125.376,243.125v1.188h3.594v-1.188H125.376z M130.157,243.125v1.188h3.594v-1.188H130.157z
	 M134.938,243.125v1.188h3.562v-1.188H134.938z M139.688,243.125v1.188h3.594v-1.188H139.688z M144.469,243.125v1.188h3.594v-1.188
	H144.469z M149.251,243.125v1.188h3.594v-1.188H149.251z M154.032,243.125v1.188h3.594v-1.188H154.032z M158.813,243.125v1.188
	h3.562v-1.188H158.813z M163.594,243.125v1.188h3.562v-1.188H163.594z M168.344,243.125v1.188h3.594v-1.188H168.344z
	 M173.126,243.125v1.188h3.594v-1.188H173.126z M177.907,243.125v1.188h3.594v-1.188H177.907z M182.688,243.125v1.188h2.094v-1.188
	H182.688z M359.376,243.125v1.188h3.562v-1.188H359.376z M364.126,243.125v1.188h3.594v-1.188H364.126z M368.907,243.125v1.188
	h3.594v-1.188H368.907z M373.688,243.125v1.188h3.594v-1.188H373.688z M378.469,243.125v1.188h3.594v-1.188H378.469z
	 M383.251,243.125v1.188h3.562v-1.188H383.251z M388.001,243.125v1.188h3.594v-1.188H388.001z M392.782,243.125v1.188h3.594v-1.188
	H392.782z M397.563,243.125v1.188h3.594v-1.188H397.563z M402.344,243.125v1.188h3.594v-1.188H402.344z"/>
<path id="path11878" fill="#FFFFFF" stroke="#FFFFFF" stroke-miterlimit="10" d="M9.876,33.625v3.5h1.188v-3.5H9.876z M9.876,38.312
	v3.5h1.188v-3.5H9.876z M9.876,42.969V46.5h1.188v-3.531H9.876z M9.876,47.656v3.5h1.188v-3.5H9.876z M9.876,52.312v3.531h1.188
	v-3.531H9.876z M9.876,57v3.5h1.188V57H9.876z M9.876,61.688v3.5h1.188v-3.5H9.876z M9.876,66.344v3.531h1.188v-3.531H9.876z
	 M9.876,71.031v3.5h1.188v-3.5H9.876z M9.876,75.719v3.5h1.188v-3.5H9.876z M9.876,80.375v3.531h1.188v-3.531H9.876z M9.876,85.062
	v3.5h1.188v-3.5H9.876z M9.876,89.719v3.531h1.188v-3.531H9.876z M9.876,94.406v3.5h1.188v-3.5H9.876z M9.876,99.094v3.5h1.188v-3.5
	H9.876z M9.876,103.75v3.531h1.188v-3.531H9.876z M9.876,108.438v3.5h1.188v-3.5H9.876z M9.876,113.125v3.5h1.188v-3.5H9.876z
	 M9.876,117.781v3.5h1.188v-3.5H9.876z M9.876,122.469v3.5h1.188v-3.5H9.876z M9.876,127.125v3.531h1.188v-3.531H9.876z
	 M9.876,131.812v3.5h1.188v-3.5H9.876z M9.876,136.5v3.5h1.188v-3.5H9.876z M9.876,141.156v3.5h1.188v-3.5H9.876z M9.876,145.844
	v3.5h1.188v-3.5H9.876z M9.876,150.531v3.5h1.188v-3.5H9.876z M9.876,155.188v3.5h1.188v-3.5H9.876z M9.876,159.875v3.5h1.188v-3.5
	H9.876z M9.876,164.531v3.531h1.188v-3.531H9.876z M9.876,169.219v3.5h1.188v-3.5H9.876z M9.876,173.906v3.5h1.188v-3.5H9.876z
	 M9.876,178.562v3.5h1.188v-3.5H9.876z M9.876,183.25v3.5h1.188v-3.5H9.876z M9.876,187.906v3.531h1.188v-3.531H9.876z
	 M9.876,192.594v3.5h1.188v-3.5H9.876z M9.876,197.281v3.5h1.188v-3.5H9.876z M9.876,201.938v3.5h1.188v-3.5H9.876z M9.876,206.625
	v3.5h1.188v-3.5H9.876z M9.876,211.281v3.531h1.188v-3.531H9.876z M9.876,215.969v3.5h1.188v-3.5H9.876z M9.876,220.656v3.5h1.188
	v-3.5H9.876z M9.876,225.312v3.5h1.188v-3.5H9.876z M9.876,230v3.5h1.188V230H9.876z M9.876,234.656v3.531h1.188v-3.531H9.876z
	 M9.876,239.344v3.5h1.188v-3.5H9.876z M9.876,244.031v3.5h1.188v-3.5H9.876z M9.876,248.688v3.5h1.188v-3.5H9.876z M9.876,253.375
	v3.5h1.188v-3.5H9.876z M9.876,258.031v3.531h1.188v-3.531H9.876z M406.907,262.562l-1.188,0.062l0.156,3.5l1.188-0.062
	L406.907,262.562z M9.876,262.719v3.5h1.188v-3.5H9.876z M407.126,267.25l-1.188,0.031l0.156,3.5l1.219-0.031L407.126,267.25z
	 M9.876,267.406v3.5h1.188v-3.5H9.876z M397.219,270.25v1.188l3.594-0.031l-0.031-1.156H397.219L397.219,270.25z M402.001,270.25
	v1.156h3.562v-1.156H402.001z M391.251,270.281l-3.594,0.031v1.156h3.594V270.281L391.251,270.281z M392.438,270.281v1.156h3.594
	v-1.156H392.438z M376.907,270.312l-3.562,0.031v1.156h3.562V270.312L376.907,270.312z M378.094,270.312l0.03,1.188h3.562v-1.188
	H378.094L378.094,270.312z M382.876,270.312v1.156h3.594v-1.156H382.876z M367.376,270.344l-3.594,0.031v1.156h3.594V270.344
	L367.376,270.344z M368.563,270.344v1.188l3.594-0.031v-1.156H368.563L368.563,270.344z M359.001,270.375l0.03,1.188l3.562-0.031
	v-1.156H359.001L359.001,270.375z M181.126,270.969L177.563,271v1.156h3.562V270.969L181.126,270.969z M182.313,270.969l0.031,1.156
	h0.844v-1.156H182.313L182.313,270.969z M171.594,271l-3.594,0.031v1.156h3.594V271z M172.782,271v1.188l3.594-0.031V271H172.782
	L172.782,271z M158.469,271.031v1.188h3.562v-1.188H158.469z M163.219,271.031v1.188l3.594-0.031v-1.156H163.219L163.219,271.031z
	 M148.907,271.062v1.188l3.594-0.031l-0.031-1.156H148.907L148.907,271.062z M153.688,271.062v1.156h3.562v-1.156H153.688z
	 M142.938,271.094l-3.594,0.031l0.031,1.156h3.562V271.094L142.938,271.094z M144.126,271.094v1.156h3.594v-1.156H144.126z
	 M133.376,271.125l-3.562,0.031v1.156h3.562V271.125L133.376,271.125z M134.594,271.125v1.156h3.562v-1.156H134.594z
	 M123.844,271.156l-3.594,0.031v1.156h3.594V271.156L123.844,271.156z M125.032,271.156v1.156h3.594l-0.031-1.156H125.032
	L125.032,271.156z M114.282,271.188l-3.562,0.031v1.156h3.562V271.188L114.282,271.188z M115.469,271.188v1.188l3.594-0.031v-1.156
	H115.469L115.469,271.188z M104.751,271.219l-3.594,0.031v1.156h3.594V271.219L104.751,271.219z M105.938,271.219v1.188l3.562-0.031
	v-1.156H105.938L105.938,271.219z M95.188,271.25l-3.594,0.031v1.156h3.594V271.25L95.188,271.25z M96.376,271.25v1.188l3.594-0.031
	v-1.156H96.376L96.376,271.25z M85.626,271.281l-3.562,0.031v1.156h3.562V271.281L85.626,271.281z M86.813,271.281l0.031,1.188
	l3.562-0.031v-1.156H86.813L86.813,271.281z M76.094,271.312l-3.594,0.031v1.156h3.594V271.312L76.094,271.312z M77.282,271.312
	v1.156h3.594v-1.156H77.282z M66.532,271.344l-3.594,0.03l0.031,1.156h3.562V271.344L66.532,271.344z M67.719,271.344v1.156h3.594
	v-1.156H67.719z M56.969,271.374l-3.562,0.031v1.156h3.594L56.969,271.374L56.969,271.374z M58.188,271.374v1.156h3.562v-1.156
	H58.188z M47.438,271.405l-3.594,0.031v1.156h3.594V271.405L47.438,271.405z M48.626,271.405v1.188l3.594-0.031v-1.156H48.626
	L48.626,271.405z M37.876,271.437l-3.562,0.031v1.156h3.562V271.437L37.876,271.437z M39.063,271.437l0.031,1.188l3.562-0.031
	v-1.156H39.063L39.063,271.437z M28.344,271.468l-3.594,0.031v1.156h3.594V271.468L28.344,271.468z M29.532,271.468v1.188
	l3.594-0.031l-0.031-1.156H29.532L29.532,271.468z M18.782,271.499l-3.594,0.031v1.156h3.594V271.499L18.782,271.499z
	 M19.969,271.499v1.188l3.594-0.031v-1.156H19.969L19.969,271.499z M10.469,271.53v0.531H9.876v0.062v0.562h0.594h3.531v-1.156
	H10.469z"/>
<path id="path11896" fill="#FFFFFF" d="M388.137,95.379c-2.97-0.304-6.028-0.011-8.99,1.168l0.447,1.096
	c5.526-2.2,11.409-1.132,16.526,1.242s9.44,6.065,11.64,8.913l0.933-0.73c-2.349-3.041-6.736-6.777-12.05-9.241
	C393.987,96.594,391.107,95.682,388.137,95.379L388.137,95.379z"/>
<path id="path13073" fill="#FFFFFF" d="M373.559,97.624l7.814-5.361l0.83,9.315L373.559,97.624z"/>
<path id="text2444" fill="#FFFFFF" d="M371.488,127.614v1.183h-6.624c-0.009-0.296,0.039-0.581,0.144-0.854
	c0.169-0.451,0.438-0.896,0.811-1.333c0.371-0.438,0.907-0.943,1.609-1.518c1.089-0.893,1.825-1.601,2.208-2.123
	s0.574-1.015,0.574-1.48c0-0.488-0.174-0.899-0.522-1.234s-0.804-0.502-1.364-0.502c-0.593,0-1.066,0.178-1.422,0.533
	s-0.535,0.848-0.54,1.477l-1.265-0.13c0.087-0.943,0.412-1.662,0.978-2.157s1.324-0.742,2.276-0.742c0.962,0,1.723,0.267,2.283,0.8
	s0.841,1.194,0.841,1.982c0,0.401-0.082,0.795-0.246,1.183s-0.437,0.795-0.816,1.224c-0.381,0.428-1.014,1.016-1.897,1.764
	c-0.738,0.62-1.212,1.04-1.422,1.261s-0.383,0.443-0.52,0.667H371.488z M373.163,122.323l-0.314-1.873v-1.675h1.401v1.675
	l-0.328,1.873H373.163z"/>
<path id="text2448" fill="#FFFFFF" d="M304.363,126.429l1.23-0.164c0.141,0.697,0.381,1.2,0.721,1.507s0.753,0.461,1.24,0.461
	c0.579,0,1.068-0.201,1.467-0.602s0.598-0.898,0.598-1.49c0-0.565-0.185-1.031-0.554-1.398s-0.838-0.55-1.408-0.55
	c-0.232,0-0.521,0.045-0.868,0.137l0.137-1.08c0.082,0.009,0.148,0.014,0.198,0.014c0.524,0,0.996-0.137,1.415-0.41
	c0.42-0.273,0.629-0.695,0.629-1.265c0-0.451-0.152-0.825-0.458-1.121c-0.305-0.296-0.699-0.444-1.183-0.444
	c-0.479,0-0.877,0.15-1.195,0.451c-0.319,0.301-0.524,0.752-0.615,1.354l-1.23-0.219c0.15-0.825,0.492-1.464,1.025-1.917
	s1.195-0.68,1.988-0.68c0.547,0,1.051,0.117,1.511,0.352c0.461,0.235,0.812,0.555,1.057,0.96s0.365,0.836,0.365,1.292
	c0,0.433-0.116,0.827-0.349,1.183s-0.576,0.638-1.032,0.848c0.593,0.137,1.053,0.42,1.381,0.851s0.492,0.97,0.492,1.617
	c0,0.875-0.318,1.617-0.957,2.225c-0.638,0.608-1.444,0.913-2.42,0.913c-0.879,0-1.609-0.262-2.19-0.786
	S304.445,127.263,304.363,126.429L304.363,126.429z M312.497,122.601l-0.314-1.873v-1.675h1.401v1.675l-0.328,1.873H312.497z"/>
<path id="text2452" fill="#FFFFFF" d="M299.305,75.053l1.292-0.109c0.096,0.629,0.317,1.102,0.666,1.419
	c0.349,0.316,0.77,0.475,1.262,0.475c0.592,0,1.094-0.223,1.504-0.67c0.41-0.446,0.615-1.039,0.615-1.777
	c0-0.702-0.197-1.255-0.592-1.661c-0.394-0.405-0.91-0.608-1.548-0.608c-0.396,0-0.755,0.09-1.073,0.271
	c-0.319,0.18-0.57,0.413-0.752,0.7l-1.155-0.15l0.971-5.147h4.983v1.176h-3.999l-0.54,2.693c0.602-0.419,1.232-0.629,1.894-0.629
	c0.875,0,1.613,0.303,2.215,0.909c0.602,0.606,0.902,1.386,0.902,2.338c0,0.907-0.265,1.691-0.793,2.352
	c-0.643,0.812-1.521,1.217-2.632,1.217c-0.912,0-1.655-0.255-2.232-0.766C299.717,76.573,299.387,75.896,299.305,75.053
	L299.305,75.053z M307.447,71.204l-0.314-1.873v-1.675h1.401v1.675l-0.328,1.873H307.447z"/>
<g id="g2656" transform="matrix(1.116511,0,0,1.092038,315.98224,137.74499)">
	<path id="path2658" fill="#FFFFFF" stroke="#FFFFFF" stroke-miterlimit="10" d="M405.851-31.928V-39.1h0.994l3.848,5.631V-39.1
		h0.929v7.172h-0.994l-3.847-5.636v5.636H405.851z"/>
	<path id="path2660" fill="#FFFFFF" stroke="#FFFFFF" stroke-miterlimit="10" d="M413.285-31.928V-39.1h0.97v2.945h3.807V-39.1
		h0.969v7.172h-0.969v-3.38h-3.807v3.38H413.285z"/>
	<path id="path2662" fill="#FFFFFF" stroke="#FFFFFF" stroke-miterlimit="10" d="M423.724-30.488v0.634h-3.631
		c-0.005-0.159,0.021-0.312,0.079-0.458c0.092-0.242,0.241-0.481,0.443-0.716c0.204-0.235,0.499-0.506,0.883-0.814
		c0.597-0.479,1.001-0.859,1.211-1.139c0.21-0.28,0.315-0.545,0.315-0.795c0-0.262-0.095-0.482-0.287-0.662
		c-0.191-0.18-0.44-0.27-0.747-0.27c-0.325,0-0.585,0.096-0.779,0.286c-0.195,0.191-0.294,0.455-0.297,0.793l-0.694-0.07
		c0.048-0.507,0.227-0.892,0.536-1.158c0.31-0.266,0.726-0.398,1.248-0.398c0.527,0,0.944,0.144,1.252,0.43
		c0.307,0.286,0.461,0.641,0.461,1.064c0,0.216-0.045,0.427-0.135,0.635c-0.09,0.208-0.24,0.427-0.448,0.657
		c-0.209,0.23-0.555,0.545-1.04,0.947c-0.405,0.333-0.665,0.558-0.779,0.677c-0.115,0.118-0.21,0.238-0.285,0.358H423.724
		L423.724-30.488z"/>
</g>
<path id="text2712" fill="#FFFFFF" stroke="#FFFFFF" stroke-miterlimit="10" d="M748.018,76.627h-0.611v-3.806
	c-0.146,0.137-0.34,0.274-0.578,0.412s-0.453,0.24-0.643,0.309v-0.577c0.342-0.157,0.64-0.347,0.896-0.571s0.437-0.44,0.543-0.65
	h0.394V76.627L748.018,76.627z"/>
<path id="text2732" fill="#FFFFFF" stroke="#FFFFFF" stroke-miterlimit="10" d="M749.094,84.466v0.574h-3.288
	c-0.004-0.144,0.02-0.282,0.071-0.415c0.084-0.219,0.218-0.435,0.402-0.647s0.45-0.458,0.799-0.737
	c0.541-0.434,0.906-0.777,1.096-1.03c0.19-0.253,0.285-0.493,0.285-0.718c0-0.237-0.087-0.437-0.26-0.599s-0.398-0.244-0.677-0.244
	c-0.294,0-0.529,0.086-0.705,0.259c-0.177,0.172-0.266,0.412-0.269,0.717l-0.628-0.063c0.043-0.458,0.205-0.807,0.485-1.047
	c0.28-0.24,0.657-0.36,1.13-0.36c0.478,0,0.855,0.129,1.133,0.388c0.278,0.259,0.418,0.58,0.418,0.962
	c0,0.195-0.041,0.386-0.122,0.574c-0.082,0.188-0.217,0.386-0.405,0.594c-0.189,0.208-0.503,0.493-0.941,0.856
	c-0.367,0.301-0.602,0.505-0.706,0.612c-0.104,0.107-0.19,0.215-0.258,0.324H749.094L749.094,84.466z"/>
<path id="text2752" fill="#FFFFFF" stroke="#FFFFFF" stroke-miterlimit="10" d="M734.465,89.097l0.61-0.08
	c0.07,0.339,0.189,0.583,0.358,0.732c0.168,0.149,0.374,0.224,0.615,0.224c0.288,0,0.53-0.098,0.728-0.292
	c0.198-0.195,0.297-0.436,0.297-0.724c0-0.274-0.091-0.5-0.274-0.679c-0.183-0.178-0.416-0.267-0.698-0.267
	c-0.116,0-0.26,0.022-0.432,0.066l0.068-0.524c0.04,0.004,0.073,0.006,0.098,0.006c0.261,0,0.494-0.066,0.703-0.199
	c0.208-0.132,0.312-0.337,0.312-0.614c0-0.219-0.075-0.4-0.228-0.544c-0.151-0.144-0.347-0.216-0.586-0.216
	c-0.238,0-0.436,0.073-0.594,0.219c-0.159,0.146-0.261,0.365-0.306,0.657l-0.61-0.106c0.074-0.4,0.244-0.71,0.509-0.931
	c0.265-0.22,0.594-0.33,0.987-0.33c0.271,0,0.521,0.057,0.749,0.171s0.403,0.27,0.524,0.466s0.182,0.406,0.182,0.627
	c0,0.21-0.058,0.402-0.173,0.574s-0.286,0.31-0.513,0.412c0.294,0.066,0.522,0.204,0.686,0.413s0.244,0.471,0.244,0.785
	c0,0.425-0.158,0.785-0.475,1.08c-0.317,0.295-0.718,0.443-1.201,0.443c-0.437,0-0.799-0.127-1.088-0.382
	C734.67,89.831,734.506,89.501,734.465,89.097L734.465,89.097z"/>
<path id="text2772" fill="#FFFFFF" stroke="#FFFFFF" stroke-miterlimit="10" d="M728.274,85.703v-1.165h-2.158v-0.547l2.27-3.152
	h0.499v3.152h0.672v0.547h-0.672v1.165H728.274z M728.274,83.991v-2.193l-1.558,2.193H728.274z"/>
<path id="text2792" fill="#FFFFFF" stroke="#FFFFFF" stroke-miterlimit="10" d="M726.532,75.605l0.641-0.053
	c0.048,0.305,0.158,0.535,0.331,0.688s0.382,0.23,0.626,0.23c0.294,0,0.543-0.108,0.746-0.325s0.306-0.504,0.306-0.863
	c0-0.34-0.099-0.609-0.294-0.806s-0.451-0.295-0.769-0.295c-0.196,0-0.374,0.044-0.532,0.131c-0.158,0.088-0.283,0.201-0.373,0.34
	l-0.573-0.073l0.481-2.499h2.473v0.571h-1.984l-0.268,1.308c0.299-0.204,0.611-0.305,0.939-0.305c0.435,0,0.801,0.147,1.1,0.441
	c0.298,0.294,0.447,0.673,0.447,1.135c0,0.44-0.131,0.82-0.394,1.141c-0.318,0.394-0.754,0.591-1.306,0.591
	c-0.453,0-0.822-0.124-1.108-0.372C726.735,76.343,726.572,76.015,726.532,75.605L726.532,75.605L726.532,75.605z"/>
<path id="text2812" fill="#FFFFFF" stroke="#FFFFFF" stroke-miterlimit="10" d="M738.678,67.865l-0.606,0.047
	c-0.055-0.235-0.132-0.405-0.231-0.511c-0.165-0.17-0.368-0.255-0.61-0.255c-0.194,0-0.365,0.053-0.513,0.159
	c-0.191,0.137-0.344,0.337-0.454,0.601s-0.169,0.638-0.173,1.125c0.146-0.219,0.326-0.382,0.539-0.488
	c0.213-0.106,0.436-0.16,0.669-0.16c0.407,0,0.753,0.147,1.039,0.44s0.43,0.672,0.43,1.136c0,0.306-0.067,0.589-0.202,0.852
	c-0.135,0.262-0.319,0.463-0.555,0.602s-0.502,0.209-0.801,0.209c-0.509,0-0.924-0.183-1.245-0.549
	c-0.321-0.366-0.481-0.969-0.481-1.81c0-0.94,0.178-1.624,0.533-2.05c0.31-0.372,0.727-0.558,1.251-0.558
	c0.392,0,0.712,0.107,0.962,0.322S738.63,67.487,738.678,67.865L738.678,67.865z M736.185,69.962c0,0.206,0.045,0.403,0.134,0.591
	c0.09,0.188,0.215,0.331,0.375,0.43c0.161,0.098,0.329,0.147,0.506,0.147c0.258,0,0.479-0.102,0.665-0.305s0.278-0.48,0.278-0.83
	c0-0.336-0.092-0.601-0.275-0.794c-0.183-0.194-0.414-0.291-0.691-0.291c-0.276,0-0.511,0.097-0.703,0.291
	C736.282,69.394,736.185,69.648,736.185,69.962L736.185,69.962z"/>
<g id="g3065" transform="matrix(1.116511,0,0,1.092038,-220.54657,-90.643615)">
	<g id="g332" transform="matrix(2.6370022,0,0,2.5819024,-78.136799,93.319481)">
		<line id="line334" fill="#FFFFFF" stroke="#FFFFFF" stroke-linecap="round" x1="297.852" y1="71.275" x2="293.739" y2="68.904"/>
		<line id="line336" fill="#FFFFFF" stroke="#FFFFFF" stroke-linecap="round" x1="296.562" y1="72.324" x2="293.478" y2="70.545"/>
	</g>
	<g id="g338" transform="matrix(2.6370022,0,0,2.5819024,-78.136799,93.319481)">
		<line id="line340" fill="#FFFFFF" stroke="#FFFFFF" stroke-linecap="round" x1="299.967" y1="78.739" x2="303.33" y2="81.183"/>
		<line id="line342" fill="#FFFFFF" stroke="#FFFFFF" stroke-linecap="round" x1="299.358" y1="79.576" x2="302.721" y2="82.02"/>
	</g>
	<g id="g344" transform="matrix(2.6370022,0,0,2.5819024,-78.136799,93.319481)">
		<line id="line346" fill="#FFFFFF" stroke="#FFFFFF" x1="293.739" y1="84.478" x2="293.739" y2="86.806"/>
	</g>
	<g id="g348" transform="matrix(2.6370022,0,0,2.5819024,-78.136799,93.319481)">
		<line id="line350" fill="#FFFFFF" stroke="#FFFFFF" stroke-linecap="round" x1="299.662" y1="79.157" x2="299.662" y2="74.13"/>
	</g>
	<g id="g352" transform="matrix(2.6370022,0,0,2.5819024,-78.136799,93.319481)">
		<line id="line354" fill="#FFFFFF" stroke="#FFFFFF" stroke-linecap="round" x1="293.739" y1="68.904" x2="293.739" y2="63.782"/>
	</g>
	<g id="g356" transform="matrix(2.6370022,0,0,2.5819024,-78.136799,93.319481)">
		<line id="line358" fill="#FFFFFF" stroke="#FFFFFF" stroke-linecap="round" x1="293.739" y1="68.904" x2="287.816" y2="72.319"/>
	</g>
	<g id="g360" transform="matrix(2.6370022,0,0,2.5819024,-78.136799,93.319481)">
		<line id="line362" fill="#FFFFFF" stroke="#FFFFFF" stroke-linecap="round" x1="287.816" y1="72.319" x2="287.816" y2="79.157"/>
		<line id="line364" fill="#FFFFFF" stroke="#FFFFFF" stroke-linecap="round" x1="289.368" y1="73.174" x2="289.368" y2="78.302"/>
	</g>
	<g id="g366" transform="matrix(2.6370022,0,0,2.5819024,-78.136799,93.319481)">
		<line id="line368" fill="#FFFFFF" stroke="#FFFFFF" stroke-linecap="round" x1="295.782" y1="81.395" x2="299.662" y2="79.157"/>
	</g>
	<g id="g370" transform="matrix(2.6370022,0,0,2.5819024,-78.136799,93.319481)">
		<line id="line372" fill="#FFFFFF" stroke="#FFFFFF" stroke-linecap="round" x1="287.816" y1="79.157" x2="291.901" y2="81.513"/>
	</g>
	<path id="text374" fill="#FFFFFF" stroke="#FFFFFF" stroke-miterlimit="10" d="M693.274,308.518v-7.172h0.995l3.847,5.63v-5.63
		h0.93v7.172h-0.995l-3.847-5.636v5.636H693.274z"/>
	<path id="text376" fill="#FFFFFF" stroke="#FFFFFF" stroke-miterlimit="10" d="M708.965,282.044v-7.172h0.995l3.847,5.632v-5.632
		h0.93v7.172h-0.995l-3.848-5.636v5.636H708.965z"/>
	<path id="text378" fill="#FFFFFF" stroke="#FFFFFF" stroke-miterlimit="10" d="M693.299,326.171v-7.172h3.248
		c0.652,0,1.148,0.064,1.489,0.193c0.339,0.129,0.611,0.357,0.814,0.682c0.203,0.326,0.305,0.687,0.305,1.081
		c0,0.509-0.169,0.938-0.505,1.287c-0.337,0.349-0.856,0.571-1.559,0.665c0.257,0.121,0.451,0.24,0.585,0.357
		c0.283,0.255,0.551,0.572,0.804,0.954l1.274,1.952h-1.219l-0.969-1.493c-0.283-0.43-0.516-0.76-0.7-0.988
		c-0.183-0.228-0.347-0.388-0.492-0.479c-0.145-0.091-0.293-0.155-0.443-0.19c-0.11-0.023-0.29-0.034-0.54-0.034h-1.124v3.184
		H693.299z M694.269,322.164h2.083c0.443,0,0.789-0.045,1.039-0.134c0.25-0.089,0.44-0.233,0.569-0.431
		c0.13-0.197,0.195-0.411,0.195-0.643c0-0.339-0.126-0.618-0.377-0.836c-0.252-0.218-0.649-0.328-1.192-0.328h-2.318V322.164z"/>
	<path id="text384" fill="#FFFFFF" stroke="#FFFFFF" stroke-miterlimit="10" d="M722.323,306.586c0-1.191,0.326-2.123,0.98-2.796
		c0.652-0.673,1.496-1.01,2.528-1.01c0.676,0,1.286,0.157,1.829,0.474s0.957,0.757,1.242,1.323c0.284,0.566,0.427,1.207,0.427,1.924
		c0,0.728-0.15,1.379-0.45,1.953c-0.3,0.573-0.724,1.008-1.274,1.303c-0.549,0.296-1.142,0.443-1.778,0.443
		c-0.69,0-1.306-0.163-1.849-0.489c-0.543-0.326-0.954-0.771-1.234-1.335C722.463,307.812,722.323,307.216,722.323,306.586
		L722.323,306.586L722.323,306.586z M723.323,306.6c0,0.864,0.237,1.545,0.712,2.042c0.474,0.497,1.07,0.746,1.786,0.746
		c0.729,0,1.329-0.25,1.801-0.753c0.471-0.503,0.708-1.215,0.708-2.138c0-0.584-0.101-1.094-0.303-1.528
		c-0.201-0.436-0.497-0.774-0.884-1.013c-0.388-0.24-0.824-0.359-1.307-0.359c-0.686,0-1.276,0.231-1.771,0.692
		C723.57,304.75,723.323,305.521,723.323,306.6L723.323,306.6L723.323,306.6z"/>
	<g id="g2690" transform="translate(-274.61103,514.05905)">
		<path id="path2692" fill="#FFFFFF" stroke="#FFFFFF" stroke-miterlimit="10" d="M965.646-257.965v-7.172h0.994l3.848,5.631v-5.631
			h0.929v7.172h-0.994l-3.848-5.636v5.636H965.646z"/>
		<path id="path2694" fill="#FFFFFF" stroke="#FFFFFF" stroke-miterlimit="10" d="M973.082-257.965v-7.172h0.969v2.945h3.807v-2.945
			h0.969v7.172h-0.969v-3.38h-3.807v3.38H973.082z"/>
		<path id="path2696" fill="#FFFFFF" stroke="#FFFFFF" stroke-miterlimit="10" d="M983.52-256.526v0.634h-3.631
			c-0.005-0.158,0.021-0.311,0.079-0.458c0.093-0.242,0.241-0.481,0.444-0.715c0.203-0.235,0.498-0.506,0.883-0.815
			c0.596-0.479,1.001-0.859,1.21-1.139c0.21-0.28,0.315-0.545,0.315-0.795c0-0.261-0.095-0.482-0.286-0.662
			c-0.192-0.18-0.441-0.27-0.748-0.27c-0.324,0-0.585,0.096-0.779,0.286c-0.195,0.191-0.294,0.455-0.297,0.793l-0.693-0.07
			c0.047-0.507,0.226-0.892,0.535-1.158c0.31-0.265,0.726-0.398,1.248-0.398c0.527,0,0.945,0.143,1.252,0.429
			c0.307,0.286,0.461,0.641,0.461,1.064c0,0.216-0.045,0.427-0.135,0.635c-0.09,0.208-0.24,0.427-0.448,0.656
			c-0.209,0.23-0.555,0.545-1.04,0.947c-0.405,0.333-0.665,0.558-0.779,0.677c-0.115,0.119-0.21,0.238-0.285,0.358H983.52z"/>
	</g>
	<path id="text2716" fill="#FFFFFF" stroke="#FFFFFF" stroke-miterlimit="10" d="M696.135,299.063h-0.547v-3.485
		c-0.132,0.125-0.304,0.25-0.518,0.376c-0.214,0.125-0.406,0.219-0.576,0.283v-0.529c0.306-0.144,0.574-0.318,0.803-0.523
		c0.228-0.205,0.39-0.403,0.485-0.596h0.352V299.063z"/>
	<path id="text2736" fill="#FFFFFF" stroke="#FFFFFF" stroke-miterlimit="10" d="M707.61,295.313v0.526h-2.944
		c-0.004-0.132,0.018-0.258,0.064-0.38c0.075-0.201,0.195-0.398,0.36-0.593c0.164-0.194,0.403-0.419,0.715-0.674
		c0.484-0.397,0.811-0.712,0.981-0.943c0.17-0.232,0.255-0.452,0.255-0.657c0-0.217-0.078-0.401-0.233-0.549
		c-0.155-0.148-0.357-0.224-0.606-0.224c-0.263,0-0.474,0.079-0.632,0.237c-0.157,0.158-0.238,0.376-0.24,0.656l-0.562-0.058
		c0.039-0.419,0.184-0.739,0.435-0.959c0.251-0.219,0.589-0.329,1.012-0.329c0.428,0,0.765,0.118,1.015,0.356
		c0.249,0.236,0.373,0.53,0.373,0.881c0,0.178-0.036,0.353-0.109,0.526c-0.073,0.172-0.193,0.353-0.363,0.544
		c-0.169,0.19-0.45,0.452-0.843,0.784c-0.328,0.275-0.539,0.461-0.632,0.56c-0.094,0.098-0.171,0.198-0.231,0.297H707.61z"/>
	<path id="text2756" fill="#FFFFFF" stroke="#FFFFFF" stroke-miterlimit="10" d="M704.676,285.071l0.547-0.072
		c0.063,0.309,0.17,0.533,0.321,0.669c0.151,0.138,0.335,0.206,0.552,0.206c0.257,0,0.474-0.089,0.652-0.267
		c0.177-0.178,0.266-0.4,0.266-0.663c0-0.251-0.082-0.458-0.247-0.622c-0.164-0.163-0.373-0.244-0.625-0.244
		c-0.103,0-0.232,0.02-0.387,0.061l0.061-0.48c0.037,0.004,0.066,0.006,0.088,0.006c0.233,0,0.443-0.061,0.629-0.182
		c0.186-0.122,0.28-0.309,0.28-0.562c0-0.2-0.068-0.367-0.204-0.498c-0.136-0.132-0.311-0.198-0.526-0.198
		c-0.213,0-0.39,0.067-0.532,0.201c-0.142,0.133-0.234,0.334-0.274,0.601l-0.547-0.097c0.066-0.367,0.219-0.651,0.456-0.853
		c0.237-0.201,0.532-0.302,0.884-0.302c0.243,0,0.467,0.052,0.672,0.156c0.204,0.105,0.36,0.247,0.469,0.427
		c0.108,0.181,0.163,0.372,0.163,0.575c0,0.192-0.052,0.368-0.155,0.525c-0.103,0.158-0.256,0.284-0.459,0.377
		c0.264,0.061,0.468,0.187,0.614,0.378c0.146,0.191,0.219,0.431,0.219,0.718c0,0.39-0.142,0.719-0.425,0.989
		c-0.283,0.271-0.642,0.406-1.076,0.406c-0.391,0-0.715-0.116-0.973-0.349C704.86,285.744,704.713,285.442,704.676,285.071
		L704.676,285.071L704.676,285.071z"/>
	<path id="text2776" fill="#FFFFFF" stroke="#FFFFFF" stroke-miterlimit="10" d="M696.667,282.25v-1.067h-1.933v-0.502l2.033-2.887
		h0.447v2.887h0.602v0.502h-0.602v1.067H696.667L696.667,282.25z M696.667,280.681v-2.008l-1.395,2.008H696.667z"/>
	<path id="text2796" fill="#FFFFFF" stroke="#FFFFFF" stroke-miterlimit="10" d="M687.403,285.042l0.575-0.048
		c0.042,0.28,0.141,0.49,0.296,0.63c0.155,0.14,0.342,0.212,0.561,0.212c0.263,0,0.486-0.1,0.669-0.299
		c0.182-0.199,0.273-0.461,0.273-0.79c0-0.312-0.087-0.558-0.262-0.738c-0.176-0.181-0.405-0.271-0.688-0.271
		c-0.177,0-0.335,0.04-0.478,0.12c-0.142,0.08-0.253,0.183-0.334,0.312l-0.513-0.068l0.431-2.288h2.215v0.522h-1.777l-0.241,1.197
		c0.268-0.186,0.548-0.28,0.842-0.28c0.388,0,0.717,0.135,0.984,0.404c0.268,0.27,0.401,0.616,0.401,1.039
		c0,0.404-0.118,0.752-0.353,1.046c-0.286,0.359-0.675,0.54-1.17,0.54c-0.405,0-0.736-0.113-0.992-0.34
		C687.585,285.718,687.439,285.417,687.403,285.042L687.403,285.042L687.403,285.042z"/>
	<path id="text2816" fill="#FFFFFF" stroke="#FFFFFF" stroke-miterlimit="10" d="M689.963,292.437l-0.544,0.042
		c-0.048-0.215-0.117-0.37-0.206-0.468c-0.148-0.156-0.33-0.234-0.547-0.234c-0.174,0-0.327,0.049-0.459,0.147
		c-0.172,0.125-0.308,0.309-0.407,0.549c-0.1,0.241-0.151,0.585-0.155,1.03c0.131-0.2,0.292-0.349,0.483-0.446
		s0.39-0.146,0.598-0.146c0.365,0,0.675,0.134,0.932,0.402c0.256,0.268,0.385,0.615,0.385,1.041c0,0.279-0.06,0.539-0.181,0.78
		c-0.121,0.24-0.286,0.424-0.497,0.551c-0.211,0.128-0.45,0.191-0.717,0.191c-0.456,0-0.827-0.168-1.115-0.503
		c-0.288-0.335-0.431-0.888-0.431-1.658c0-0.86,0.159-1.486,0.477-1.878c0.278-0.34,0.652-0.51,1.121-0.51
		c0.351,0,0.638,0.098,0.862,0.294C689.784,291.819,689.918,292.09,689.963,292.437L689.963,292.437L689.963,292.437z
		 M687.73,294.357c0,0.189,0.04,0.369,0.12,0.541c0.08,0.172,0.192,0.303,0.336,0.393s0.295,0.135,0.453,0.135
		c0.231,0,0.429-0.093,0.596-0.28c0.165-0.186,0.248-0.439,0.248-0.759c0-0.308-0.081-0.55-0.246-0.727
		c-0.164-0.178-0.371-0.266-0.62-0.266c-0.247,0-0.457,0.089-0.629,0.266C687.815,293.838,687.73,294.07,687.73,294.357
		L687.73,294.357z"/>
</g>
<g id="g3102" transform="matrix(1.116511,0,0,1.092038,-220.54657,-90.643615)">
	<g id="g25036" transform="matrix(2.6370022,0,0,2.5819024,-476.93763,-23.729598)">
		<g id="g386" transform="translate(170.77142,42.320211)">
			<line id="line388" fill="none" stroke="#FFFFFF" stroke-linecap="round" x1="306.806" y1="71.912" x2="306.806" y2="66.793"/>
			<line id="line390" fill="none" stroke="#FFFFFF" stroke-linecap="round" x1="307.841" y1="71.912" x2="307.841" y2="66.793"/>
		</g>
		<g id="g392" transform="translate(170.77142,42.320211)">
			<line id="line394" fill="none" stroke="#FFFFFF" x1="315.187" y1="73.917" x2="316.739" y2="72.789"/>
		</g>
		<g id="g396" transform="translate(170.77142,42.320211)">
			<line id="line398" fill="none" stroke="#FFFFFF" stroke-linecap="round" x1="313.547" y1="81.749" x2="317.043" y2="84.29"/>
			<line id="line400" fill="none" stroke="#FFFFFF" stroke-linecap="round" x1="312.939" y1="82.586" x2="316.435" y2="85.127"/>
		</g>
		<g id="g402" transform="translate(170.77142,42.320211)">
			<line id="line404" fill="none" stroke="#FFFFFF" x1="307.324" y1="87.489" x2="307.324" y2="89.817"/>
		</g>
		<g id="g406" transform="translate(170.77142,42.320211)">
			<line id="line408" fill="none" stroke="#FFFFFF" stroke-linecap="round" x1="313.243" y1="82.168" x2="313.243" y2="77.141"/>
		</g>
		<g id="g410" transform="translate(170.77142,42.320211)">
			<line id="line412" fill="none" stroke="#FFFFFF" stroke-linecap="round" x1="307.324" y1="71.912" x2="301.404" y2="75.33"/>
		</g>
		<g id="g414" transform="translate(170.77142,42.320211)">
			<line id="line416" fill="none" stroke="#FFFFFF" stroke-linecap="round" x1="301.404" y1="75.33" x2="301.404" y2="82.168"/>
			<line id="line418" fill="none" stroke="#FFFFFF" stroke-linecap="round" x1="302.957" y1="76.185" x2="302.957" y2="81.313"/>
		</g>
		<g id="g420" transform="translate(170.77142,42.320211)">
			<line id="line422" fill="none" stroke="#FFFFFF" stroke-linecap="round" x1="311.307" y1="74.212" x2="307.324" y2="71.912"/>
		</g>
		<g id="g424" transform="translate(170.77142,42.320211)">
			<line id="line426" fill="none" stroke="#FFFFFF" stroke-linecap="round" x1="309.237" y1="84.482" x2="313.243" y2="82.168"/>
		</g>
		<g id="g428" transform="translate(170.77142,42.320211)">
			<line id="line430" fill="none" stroke="#FFFFFF" stroke-linecap="round" x1="301.404" y1="82.168" x2="305.357" y2="84.45"/>
		</g>
		
			<text id="text432" transform="matrix(0.3547 0 0 0.3547 476.4645 135.5205)" fill="#FFCC00" stroke="#FFFFFF" stroke-miterlimit="10" font-family="'Helvetica'" font-size="10.9411">R</text>
		<path id="text434" fill="#0000FF" stroke="#FFFFFF" stroke-miterlimit="10" d="M476.76,128.683v-2.778h0.377l1.459,2.181v-2.181
			h0.352v2.778h-0.377l-1.459-2.183v2.183H476.76z"/>
		<path id="text436" fill="#0000FF" stroke="#FFFFFF" stroke-miterlimit="10" d="M482.71,118.426v-2.777h0.377l1.459,2.181v-2.181
			h0.352v2.777h-0.377l-1.459-2.183v2.183H482.71z"/>
		<path id="text438" fill="#0000FF" stroke="#FFFFFF" stroke-miterlimit="10" d="M488.035,127.936c0-0.461,0.124-0.822,0.371-1.083
			c0.248-0.261,0.567-0.391,0.959-0.391c0.256,0,0.488,0.061,0.694,0.184c0.206,0.123,0.363,0.294,0.471,0.513
			c0.108,0.219,0.162,0.468,0.162,0.746c0,0.282-0.057,0.534-0.171,0.756c-0.114,0.222-0.275,0.391-0.483,0.505
			c-0.209,0.114-0.433,0.171-0.675,0.171c-0.261,0-0.495-0.063-0.701-0.189c-0.206-0.126-0.362-0.299-0.468-0.517
			C488.088,128.411,488.035,128.18,488.035,127.936L488.035,127.936z M488.414,127.941c0,0.335,0.09,0.599,0.27,0.791
			c0.18,0.193,0.406,0.289,0.678,0.289c0.277,0,0.504-0.097,0.683-0.292c0.179-0.195,0.268-0.47,0.268-0.828
			c0-0.227-0.038-0.424-0.114-0.592c-0.077-0.169-0.188-0.299-0.336-0.392c-0.147-0.093-0.312-0.139-0.495-0.139
			c-0.26,0-0.484,0.089-0.672,0.268C488.507,127.225,488.414,127.523,488.414,127.941L488.414,127.941z"/>
		<path id="text440" fill="#0000FF" stroke="#FFFFFF" stroke-miterlimit="10" d="M476.652,106.818c0-0.461,0.124-0.822,0.372-1.083
			c0.247-0.261,0.567-0.391,0.959-0.391c0.256,0,0.488,0.061,0.694,0.184c0.206,0.123,0.363,0.293,0.471,0.513
			c0.108,0.219,0.162,0.468,0.162,0.745c0,0.282-0.057,0.534-0.171,0.756c-0.114,0.222-0.275,0.39-0.483,0.505
			c-0.208,0.114-0.433,0.171-0.674,0.171c-0.262,0-0.495-0.063-0.701-0.189c-0.206-0.127-0.362-0.299-0.468-0.517
			C476.705,107.293,476.652,107.062,476.652,106.818L476.652,106.818z M477.031,106.823c0,0.335,0.09,0.598,0.27,0.791
			c0.18,0.193,0.406,0.289,0.677,0.289c0.277,0,0.504-0.097,0.683-0.292c0.179-0.195,0.268-0.47,0.268-0.828
			c0-0.226-0.038-0.424-0.114-0.592c-0.077-0.169-0.188-0.299-0.335-0.392c-0.147-0.093-0.312-0.139-0.496-0.139
			c-0.26,0-0.484,0.089-0.672,0.268C477.125,106.107,477.031,106.405,477.031,106.823L477.031,106.823z"/>
		<path id="text442" fill="#0000FF" stroke="#FFFFFF" stroke-miterlimit="10" d="M488.158,114.406v-2.778h0.367v1.141h1.444v-1.141
			h0.367v2.778h-0.367v-1.309h-1.444v1.309H488.158z"/>
	</g>
	<path id="text2720" fill="#0000FF" stroke="#FFFFFF" stroke-miterlimit="10" d="M783.68,299.844h-0.547v-3.485
		c-0.132,0.125-0.304,0.25-0.519,0.376c-0.213,0.126-0.406,0.22-0.576,0.283v-0.529c0.306-0.144,0.573-0.318,0.802-0.522
		c0.229-0.206,0.391-0.404,0.486-0.596h0.353V299.844z"/>
	<path id="text2740" fill="#0000FF" stroke="#FFFFFF" stroke-miterlimit="10" d="M794.811,295.929v0.526h-2.944
		c-0.004-0.131,0.017-0.258,0.064-0.38c0.075-0.2,0.195-0.398,0.36-0.592c0.164-0.195,0.403-0.42,0.715-0.675
		c0.484-0.397,0.811-0.711,0.981-0.943c0.17-0.232,0.255-0.451,0.255-0.658c0-0.216-0.078-0.399-0.233-0.548
		c-0.155-0.149-0.357-0.223-0.606-0.223c-0.263,0-0.474,0.079-0.632,0.236c-0.157,0.158-0.238,0.377-0.24,0.656l-0.562-0.057
		c0.039-0.419,0.184-0.739,0.435-0.959c0.251-0.22,0.589-0.33,1.012-0.33c0.428,0,0.765,0.119,1.015,0.355
		c0.249,0.238,0.374,0.531,0.374,0.882c0,0.179-0.036,0.354-0.109,0.526c-0.073,0.172-0.193,0.353-0.363,0.544
		c-0.169,0.19-0.45,0.452-0.843,0.784c-0.328,0.275-0.539,0.462-0.632,0.561c-0.094,0.098-0.171,0.197-0.231,0.296H794.811z"/>
	<path id="text2760" fill="#0000FF" stroke="#FFFFFF" stroke-miterlimit="10" d="M791.878,286.92l0.548-0.073
		c0.062,0.311,0.169,0.534,0.32,0.671c0.151,0.137,0.335,0.206,0.552,0.206c0.257,0,0.474-0.089,0.652-0.268
		c0.178-0.178,0.266-0.399,0.266-0.662c0-0.252-0.082-0.459-0.247-0.622c-0.164-0.163-0.373-0.244-0.625-0.244
		c-0.103,0-0.232,0.021-0.386,0.061l0.06-0.48c0.037,0.004,0.066,0.006,0.088,0.006c0.233,0,0.443-0.061,0.629-0.182
		c0.186-0.122,0.28-0.309,0.28-0.562c0-0.2-0.068-0.367-0.204-0.497c-0.136-0.132-0.311-0.199-0.526-0.199
		c-0.213,0-0.39,0.067-0.532,0.201c-0.142,0.133-0.233,0.334-0.274,0.602l-0.547-0.097c0.066-0.367,0.219-0.651,0.456-0.852
		c0.237-0.202,0.532-0.302,0.884-0.302c0.243,0,0.467,0.052,0.672,0.156c0.205,0.105,0.36,0.247,0.469,0.427
		c0.108,0.181,0.163,0.372,0.163,0.574c0,0.193-0.052,0.368-0.155,0.526c-0.103,0.157-0.256,0.283-0.459,0.377
		c0.264,0.06,0.469,0.186,0.614,0.377c0.146,0.191,0.219,0.431,0.219,0.719c0,0.389-0.142,0.719-0.425,0.989
		c-0.283,0.27-0.642,0.406-1.076,0.406c-0.391,0-0.716-0.116-0.974-0.35C792.061,287.592,791.914,287.291,791.878,286.92
		L791.878,286.92z"/>
	<path id="text2780" fill="#0000FF" stroke="#FFFFFF" stroke-miterlimit="10" d="M784.484,280.423v-1.067h-1.932v-0.501l2.033-2.887
		h0.447v2.887h0.601v0.501h-0.601v1.067H784.484L784.484,280.423z M784.484,278.855v-2.009l-1.394,2.009H784.484z"/>
	<path id="text2800" fill="#0000FF" stroke="#FFFFFF" stroke-miterlimit="10" d="M775.221,286.891l0.574-0.048
		c0.043,0.279,0.142,0.489,0.297,0.63c0.155,0.141,0.342,0.212,0.561,0.212c0.263,0,0.486-0.099,0.668-0.298
		c0.183-0.199,0.274-0.461,0.274-0.791c0-0.311-0.087-0.558-0.263-0.738c-0.175-0.181-0.404-0.271-0.688-0.271
		c-0.177,0-0.336,0.04-0.478,0.12c-0.142,0.081-0.253,0.184-0.334,0.312l-0.513-0.067l0.431-2.288h2.216v0.522h-1.777l-0.241,1.197
		c0.268-0.186,0.548-0.279,0.841-0.279c0.389,0,0.717,0.134,0.985,0.404c0.268,0.269,0.401,0.615,0.401,1.039
		c0,0.403-0.118,0.751-0.353,1.045c-0.285,0.36-0.675,0.541-1.169,0.541c-0.405,0-0.736-0.114-0.992-0.341
		C775.403,287.567,775.256,287.266,775.221,286.891L775.221,286.891L775.221,286.891z"/>
	<path id="text2820" fill="#0000FF" stroke="#FFFFFF" stroke-miterlimit="10" d="M778.089,293.669l-0.544,0.043
		c-0.048-0.215-0.117-0.371-0.206-0.469c-0.148-0.156-0.33-0.234-0.547-0.234c-0.174,0-0.327,0.049-0.459,0.147
		c-0.172,0.125-0.308,0.309-0.407,0.55c-0.1,0.241-0.151,0.584-0.155,1.029c0.131-0.2,0.292-0.349,0.483-0.446
		s0.39-0.146,0.598-0.146c0.365,0,0.675,0.134,0.931,0.402c0.256,0.268,0.384,0.615,0.384,1.041c0,0.279-0.06,0.539-0.18,0.78
		c-0.121,0.24-0.286,0.424-0.497,0.551c-0.211,0.128-0.45,0.191-0.717,0.191c-0.456,0-0.827-0.167-1.115-0.503
		c-0.288-0.335-0.431-0.888-0.431-1.658c0-0.86,0.158-1.486,0.477-1.878c0.277-0.34,0.652-0.51,1.121-0.51
		c0.351,0,0.638,0.098,0.862,0.295C777.91,293.052,778.044,293.322,778.089,293.669L778.089,293.669L778.089,293.669z
		 M775.856,295.59c0,0.188,0.039,0.368,0.12,0.54c0.08,0.173,0.192,0.304,0.336,0.393c0.143,0.09,0.295,0.136,0.453,0.136
		c0.231,0,0.429-0.093,0.595-0.28c0.166-0.187,0.249-0.439,0.249-0.759c0-0.309-0.081-0.551-0.246-0.728s-0.371-0.267-0.62-0.267
		c-0.247,0-0.457,0.089-0.629,0.267S775.856,295.302,775.856,295.59L775.856,295.59z"/>
</g>
<g id="g3140" transform="matrix(1.116511,0,0,1.092038,-220.54657,-90.643615)">
	<g id="g444" transform="matrix(2.6370022,0,0,2.5819024,4.2687504,85.581186)">
		<line id="line446" fill="#FFFFFF" stroke="#FFFFFF" stroke-linecap="round" x1="329.98" y1="75.313" x2="327.46" y2="73.17"/>
	</g>
	<g id="g448" transform="matrix(2.6370022,0,0,2.5819024,4.2687504,85.581186)">
		<line id="line450" fill="#FFFFFF" stroke="#FFFFFF" stroke-linecap="round" x1="342.123" y1="81.732" x2="345.615" y2="84.269"/>
		<line id="line452" fill="#FFFFFF" stroke="#FFFFFF" stroke-linecap="round" x1="341.514" y1="82.569" x2="345.006" y2="85.107"/>
	</g>
	<g id="g454" transform="matrix(2.6370022,0,0,2.5819024,4.2687504,85.581186)">
		<line id="line456" fill="#FFFFFF" stroke="#FFFFFF" x1="335.899" y1="87.476" x2="335.899" y2="89.804"/>
	</g>
	<g id="g458" transform="matrix(2.6370022,0,0,2.5819024,4.2687504,85.581186)">
		<line id="line460" fill="#FFFFFF" stroke="#FFFFFF" stroke-linecap="round" x1="341.818" y1="82.151" x2="341.818" y2="77.128"/>
	</g>
	<g id="g462" transform="matrix(2.6370022,0,0,2.5819024,4.2687504,85.581186)">
		<line id="line464" fill="#FFFFFF" stroke="#FFFFFF" stroke-linecap="round" x1="335.382" y1="71.894" x2="335.382" y2="66.78"/>
		<line id="line466" fill="#FFFFFF" stroke="#FFFFFF" stroke-linecap="round" x1="336.417" y1="71.894" x2="336.417" y2="66.78"/>
	</g>
	<g id="g468" transform="matrix(2.6370022,0,0,2.5819024,4.2687504,85.581186)">
		<line id="line470" fill="#FFFFFF" stroke="#FFFFFF" stroke-linecap="round" x1="329.98" y1="75.313" x2="329.98" y2="82.151"/>
		<line id="line472" fill="#FFFFFF" stroke="#FFFFFF" stroke-linecap="round" x1="331.532" y1="76.168" x2="331.532" y2="81.296"/>
	</g>
	<g id="g474" transform="matrix(2.6370022,0,0,2.5819024,4.2687504,85.581186)">
		<line id="line476" fill="#FFFFFF" stroke="#FFFFFF" stroke-linecap="round" x1="339.878" y1="74.192" x2="335.899" y2="71.894"/>
	</g>
	<g id="g478" transform="matrix(2.6370022,0,0,2.5819024,4.2687504,85.581186)">
		<line id="line480" fill="#FFFFFF" stroke="#FFFFFF" stroke-linecap="round" x1="337.808" y1="84.467" x2="341.818" y2="82.151"/>
	</g>
	<g id="g482" transform="matrix(2.6370022,0,0,2.5819024,4.2687504,85.581186)">
		<line id="line484" fill="#FFFFFF" stroke="#FFFFFF" stroke-linecap="round" x1="329.98" y1="82.151" x2="333.928" y2="84.431"/>
	</g>
	<g id="g486" transform="matrix(2.6370022,0,0,2.5819024,4.2687504,85.581186)">
		<line id="line488" fill="#FFFFFF" stroke="#FFFFFF" stroke-linecap="round" x1="335.899" y1="71.894" x2="329.98" y2="75.313"/>
	</g>
	<g id="g490" transform="matrix(2.6370022,0,0,2.5819024,4.2687504,85.581186)">
		<line id="line492" fill="#FFFFFF" stroke="#FFFFFF" x1="343.758" y1="73.905" x2="345.31" y2="72.778"/>
	</g>
	<path id="text494" fill="#FFFFFF" stroke="#FFFFFF" stroke-miterlimit="10" d="M886.528,326.171v-7.172h3.248
		c0.652,0,1.149,0.064,1.489,0.193c0.34,0.129,0.611,0.357,0.814,0.682c0.203,0.326,0.305,0.687,0.305,1.081
		c0,0.509-0.169,0.938-0.505,1.287c-0.337,0.349-0.856,0.571-1.56,0.665c0.257,0.121,0.451,0.24,0.585,0.357
		c0.283,0.255,0.551,0.573,0.805,0.954l1.273,1.952h-1.219l-0.969-1.493c-0.283-0.43-0.516-0.76-0.7-0.988
		c-0.183-0.228-0.347-0.388-0.492-0.479c-0.145-0.091-0.292-0.155-0.443-0.19c-0.11-0.023-0.29-0.034-0.54-0.034h-1.124v3.184
		H886.528z M887.497,322.164h2.083c0.443,0,0.79-0.045,1.039-0.134c0.25-0.089,0.44-0.233,0.569-0.431
		c0.13-0.197,0.195-0.411,0.195-0.643c0-0.339-0.126-0.618-0.377-0.836c-0.252-0.218-0.649-0.328-1.192-0.328h-2.318V322.164z"/>
	<path id="text496" fill="#FFFFFF" stroke="#FFFFFF" stroke-miterlimit="10" d="M886.503,308.518v-7.172h0.994l3.847,5.63v-5.63
		h0.93v7.172h-0.995l-3.847-5.636v5.636H886.503z"/>
	<path id="text498" fill="#FFFFFF" stroke="#FFFFFF" stroke-miterlimit="10" d="M902.193,282.036v-7.171h0.995l3.847,5.63v-5.63
		h0.93v7.171h-0.995l-3.848-5.636v5.636H902.193z"/>
	<path id="text500" fill="#FFFFFF" stroke="#FFFFFF" stroke-miterlimit="10" d="M916.234,306.588c0-1.19,0.326-2.123,0.98-2.795
		c0.653-0.674,1.496-1.01,2.528-1.01c0.676,0,1.286,0.157,1.829,0.474c0.543,0.317,0.957,0.758,1.242,1.323
		c0.284,0.566,0.427,1.207,0.427,1.925c0,0.727-0.15,1.378-0.45,1.952c-0.3,0.574-0.724,1.009-1.274,1.304
		c-0.549,0.295-1.142,0.442-1.778,0.442c-0.69,0-1.306-0.163-1.849-0.488c-0.543-0.326-0.954-0.772-1.234-1.336
		S916.234,307.217,916.234,306.588L916.234,306.588z M917.234,306.602c0,0.865,0.237,1.545,0.712,2.042
		c0.474,0.497,1.07,0.746,1.786,0.746c0.729,0,1.33-0.25,1.801-0.753s0.708-1.214,0.708-2.137c0-0.585-0.101-1.094-0.303-1.529
		c-0.201-0.436-0.496-0.773-0.884-1.012c-0.388-0.24-0.824-0.359-1.307-0.359c-0.687,0-1.276,0.231-1.771,0.692
		C917.481,304.753,917.234,305.523,917.234,306.602L917.234,306.602z"/>
	<path id="text502" fill="#FFFFFF" stroke="#FFFFFF" stroke-miterlimit="10" d="M886.219,252.062c0-1.19,0.326-2.122,0.979-2.796
		c0.653-0.672,1.496-1.01,2.529-1.01c0.676,0,1.286,0.158,1.828,0.475c0.543,0.317,0.957,0.757,1.242,1.323
		c0.285,0.565,0.427,1.207,0.427,1.924c0,0.728-0.15,1.378-0.45,1.952c-0.299,0.574-0.724,1.008-1.273,1.304
		c-0.55,0.295-1.143,0.443-1.779,0.443c-0.689,0-1.306-0.163-1.849-0.489c-0.542-0.326-0.954-0.772-1.234-1.335
		C886.358,253.288,886.219,252.692,886.219,252.062L886.219,252.062z M887.218,252.078c0,0.864,0.237,1.545,0.712,2.042
		c0.475,0.497,1.07,0.746,1.786,0.746c0.729,0,1.33-0.251,1.802-0.754c0.471-0.502,0.707-1.214,0.707-2.138
		c0-0.583-0.101-1.093-0.303-1.528c-0.201-0.435-0.496-0.773-0.884-1.013c-0.387-0.24-0.823-0.359-1.307-0.359
		c-0.686,0-1.276,0.231-1.771,0.693C887.465,250.227,887.218,250.997,887.218,252.078L887.218,252.078L887.218,252.078z"/>
	<path id="text504" fill="#FFFFFF" stroke="#FFFFFF" stroke-miterlimit="10" d="M916.559,271.671v-7.172h0.97v2.946h3.807v-2.946
		h0.969v7.172h-0.969v-3.38h-3.807v3.38H916.559z"/>
	<path id="path2702" fill="#FFFFFF" stroke="#FFFFFF" stroke-miterlimit="10" d="M844.93,271.875v-7.172h0.969v2.946h3.807v-2.946
		h0.969v7.172h-0.969v-3.38h-3.807v3.38H844.93z"/>
	<path id="path2700" fill="#FFFFFF" stroke="#FFFFFF" stroke-miterlimit="10" d="M851.827,272.529l0.674-0.088
		c0.078,0.374,0.209,0.644,0.395,0.808c0.186,0.165,0.413,0.248,0.68,0.248c0.318,0,0.585-0.108,0.804-0.323
		c0.219-0.216,0.328-0.482,0.328-0.799c0-0.304-0.101-0.554-0.303-0.751c-0.203-0.197-0.46-0.295-0.772-0.295
		c-0.128,0-0.286,0.025-0.476,0.073l0.075-0.579c0.045,0.005,0.081,0.007,0.108,0.007c0.287,0,0.546-0.073,0.776-0.22
		s0.345-0.373,0.345-0.679c0-0.242-0.084-0.443-0.251-0.602s-0.384-0.238-0.648-0.238c-0.262,0-0.481,0.081-0.656,0.241
		c-0.175,0.161-0.288,0.404-0.338,0.726l-0.674-0.117c0.082-0.443,0.27-0.786,0.562-1.029c0.292-0.243,0.656-0.365,1.09-0.365
		c0.3,0,0.576,0.063,0.828,0.19c0.253,0.125,0.445,0.297,0.579,0.515c0.134,0.218,0.2,0.449,0.201,0.694
		c-0.001,0.232-0.064,0.444-0.192,0.634c-0.128,0.19-0.316,0.342-0.566,0.455c0.324,0.073,0.577,0.225,0.757,0.456
		c0.179,0.232,0.269,0.52,0.269,0.868c0,0.469-0.175,0.868-0.525,1.194c-0.35,0.327-0.792,0.49-1.326,0.49
		c-0.483,0-0.883-0.14-1.202-0.422C852.054,273.341,851.873,272.976,851.827,272.529L851.827,272.529L851.827,272.529z"/>
	<path id="text506" fill="#FFFFFF" stroke="#FFFFFF" stroke-miterlimit="10" d="M861.793,269.36l0.969,0.24
		c-0.203,0.78-0.569,1.374-1.097,1.783c-0.528,0.41-1.174,0.614-1.937,0.614c-0.789,0-1.431-0.157-1.926-0.472
		c-0.494-0.315-0.871-0.771-1.129-1.367c-0.258-0.597-0.387-1.238-0.387-1.923c0-0.747,0.146-1.399,0.437-1.955
		c0.292-0.556,0.707-0.978,1.245-1.266c0.538-0.289,1.13-0.433,1.776-0.433c0.732,0,1.349,0.182,1.848,0.547
		c0.499,0.365,0.848,0.879,1.044,1.542l-0.954,0.22c-0.17-0.522-0.416-0.902-0.74-1.14c-0.323-0.239-0.729-0.357-1.218-0.357
		c-0.563,0-1.034,0.131-1.412,0.395c-0.378,0.265-0.644,0.619-0.797,1.064c-0.154,0.445-0.23,0.905-0.23,1.377
		c0,0.61,0.091,1.143,0.272,1.597c0.182,0.456,0.464,0.796,0.847,1.02c0.383,0.225,0.799,0.337,1.245,0.337
		c0.543,0,1.002-0.153,1.379-0.46C861.405,270.419,861.659,269.964,861.793,269.36L861.793,269.36L861.793,269.36z"/>
	<path id="text2724" fill="#FFFFFF" stroke="#FFFFFF" stroke-miterlimit="10" d="M889.678,300.153h-0.548v-3.486
		c-0.131,0.125-0.304,0.251-0.518,0.377c-0.213,0.125-0.406,0.22-0.576,0.283v-0.529c0.305-0.143,0.573-0.318,0.802-0.522
		c0.229-0.205,0.391-0.403,0.486-0.596h0.352V300.153z"/>
	<path id="text2744" fill="#FFFFFF" stroke="#FFFFFF" stroke-miterlimit="10" d="M900.809,295.621v0.526h-2.944
		c-0.004-0.131,0.017-0.258,0.064-0.379c0.075-0.201,0.195-0.399,0.359-0.593c0.165-0.194,0.404-0.419,0.716-0.675
		c0.484-0.397,0.811-0.711,0.981-0.943c0.17-0.233,0.255-0.452,0.255-0.658c0-0.216-0.078-0.4-0.233-0.549
		c-0.156-0.148-0.357-0.223-0.606-0.223c-0.263,0-0.474,0.079-0.632,0.237c-0.158,0.157-0.238,0.376-0.24,0.656l-0.562-0.058
		c0.039-0.419,0.183-0.739,0.435-0.959c0.251-0.219,0.588-0.33,1.012-0.33c0.427,0,0.765,0.119,1.015,0.356
		c0.249,0.237,0.373,0.531,0.373,0.882c0,0.178-0.037,0.353-0.109,0.525c-0.073,0.173-0.194,0.353-0.363,0.545
		c-0.17,0.19-0.45,0.451-0.843,0.783c-0.328,0.275-0.539,0.462-0.632,0.561c-0.093,0.098-0.17,0.198-0.231,0.296H900.809z"/>
	<path id="text2764" fill="#FFFFFF" stroke="#FFFFFF" stroke-miterlimit="10" d="M898.183,287.228l0.548-0.073
		c0.062,0.31,0.17,0.534,0.32,0.67c0.151,0.138,0.335,0.206,0.552,0.206c0.257,0,0.474-0.089,0.652-0.267s0.266-0.4,0.266-0.663
		c0-0.251-0.082-0.458-0.246-0.621c-0.164-0.163-0.373-0.244-0.626-0.244c-0.103,0-0.232,0.02-0.386,0.061l0.06-0.48
		c0.037,0.004,0.066,0.006,0.088,0.006c0.233,0,0.443-0.061,0.629-0.182c0.186-0.122,0.28-0.309,0.28-0.562
		c0-0.2-0.068-0.367-0.204-0.498c-0.136-0.132-0.311-0.198-0.526-0.198c-0.213,0-0.39,0.067-0.532,0.2
		c-0.142,0.134-0.233,0.334-0.274,0.602l-0.547-0.097c0.066-0.367,0.219-0.651,0.456-0.853c0.237-0.201,0.532-0.302,0.884-0.302
		c0.243,0,0.467,0.052,0.672,0.156c0.205,0.105,0.36,0.247,0.469,0.427c0.108,0.181,0.163,0.372,0.163,0.575
		c0,0.192-0.052,0.368-0.155,0.525c-0.103,0.158-0.256,0.284-0.459,0.377c0.264,0.061,0.469,0.187,0.614,0.378
		c0.146,0.191,0.219,0.431,0.219,0.718c0,0.39-0.142,0.719-0.425,0.989c-0.283,0.271-0.642,0.406-1.076,0.406
		c-0.391,0-0.715-0.116-0.973-0.349C898.368,287.901,898.22,287.599,898.183,287.228L898.183,287.228L898.183,287.228z"/>
	<path id="text2784" fill="#FFFFFF" stroke="#FFFFFF" stroke-miterlimit="10" d="M889.557,280.423v-1.067h-1.932v-0.501l2.033-2.887
		h0.446v2.887h0.602v0.501h-0.602v1.067H889.557L889.557,280.423z M889.557,278.855v-2.009l-1.395,2.009H889.557z"/>
	<path id="text2804" fill="#FFFFFF" stroke="#FFFFFF" stroke-miterlimit="10" d="M880.602,287.507l0.574-0.048
		c0.043,0.28,0.142,0.489,0.297,0.63c0.155,0.14,0.342,0.211,0.561,0.211c0.263,0,0.486-0.099,0.668-0.298
		c0.183-0.199,0.274-0.462,0.274-0.79c0-0.313-0.087-0.558-0.262-0.739c-0.176-0.181-0.405-0.27-0.688-0.27
		c-0.177,0-0.336,0.039-0.478,0.12c-0.142,0.08-0.253,0.183-0.334,0.311l-0.513-0.067l0.431-2.288h2.216v0.523h-1.777L881.328,286
		c0.268-0.186,0.548-0.28,0.841-0.28c0.389,0,0.717,0.135,0.985,0.404s0.401,0.616,0.401,1.039c0,0.403-0.118,0.752-0.353,1.045
		c-0.286,0.36-0.676,0.541-1.17,0.541c-0.405,0-0.736-0.114-0.992-0.341S880.638,287.882,880.602,287.507L880.602,287.507
		L880.602,287.507z"/>
	<path id="text2824" fill="#FFFFFF" stroke="#FFFFFF" stroke-miterlimit="10" d="M883.778,292.745l-0.544,0.043
		c-0.049-0.215-0.117-0.37-0.206-0.469c-0.149-0.156-0.331-0.233-0.547-0.233c-0.174,0-0.327,0.049-0.458,0.146
		c-0.172,0.125-0.308,0.309-0.408,0.55c-0.099,0.241-0.15,0.584-0.155,1.03c0.132-0.201,0.293-0.35,0.483-0.446
		c0.191-0.098,0.39-0.147,0.599-0.147c0.364,0,0.675,0.134,0.931,0.402c0.257,0.268,0.385,0.615,0.385,1.041
		c0,0.28-0.06,0.54-0.181,0.78c-0.121,0.24-0.286,0.424-0.497,0.551c-0.211,0.129-0.45,0.191-0.717,0.191
		c-0.456,0-0.827-0.167-1.115-0.503c-0.287-0.334-0.431-0.887-0.431-1.657c0-0.861,0.159-1.487,0.477-1.878
		c0.278-0.341,0.652-0.511,1.121-0.511c0.351,0,0.638,0.098,0.862,0.295C883.599,292.128,883.734,292.399,883.778,292.745
		L883.778,292.745z M881.544,294.666c0,0.188,0.04,0.368,0.121,0.54c0.08,0.173,0.192,0.304,0.335,0.393
		c0.144,0.091,0.295,0.136,0.453,0.136c0.231,0,0.429-0.093,0.596-0.28c0.166-0.186,0.249-0.439,0.249-0.759
		c0-0.308-0.082-0.551-0.247-0.728c-0.164-0.177-0.37-0.266-0.619-0.266c-0.247,0-0.457,0.089-0.629,0.266
		C881.631,294.145,881.544,294.378,881.544,294.666L881.544,294.666z"/>
</g>
<path id="text2832" fill="#FFFFFF" stroke="#FFFFFF" stroke-miterlimit="10" d="M701.799,71.349v-0.574h3.22v0.465
	c-0.316,0.33-0.63,0.768-0.941,1.314c-0.311,0.546-0.551,1.108-0.721,1.686c-0.122,0.407-0.2,0.853-0.234,1.337h-0.627
	c0.007-0.383,0.083-0.845,0.23-1.387s0.358-1.064,0.633-1.568s0.567-0.927,0.877-1.272H701.799L701.799,71.349z"/>
<path id="text2840" fill="#FFFFFF" stroke="#FFFFFF" stroke-miterlimit="10" d="M698.245,81.351c-0.253-0.091-0.44-0.22-0.562-0.388
	c-0.122-0.168-0.184-0.37-0.184-0.604c0-0.354,0.13-0.652,0.391-0.893c0.26-0.241,0.605-0.362,1.038-0.362
	c0.434,0,0.783,0.123,1.048,0.37c0.265,0.247,0.397,0.547,0.397,0.901c0,0.226-0.061,0.422-0.182,0.589s-0.305,0.296-0.552,0.387
	c0.306,0.097,0.538,0.254,0.697,0.471c0.16,0.217,0.239,0.476,0.239,0.776c0,0.416-0.15,0.765-0.451,1.048s-0.696,0.425-1.188,0.425
	c-0.49,0-0.887-0.142-1.188-0.426s-0.451-0.639-0.451-1.063c0-0.316,0.082-0.581,0.246-0.795
	C697.709,81.574,697.942,81.428,698.245,81.351L698.245,81.351z M698.124,80.339c0,0.23,0.075,0.418,0.227,0.564
	s0.349,0.219,0.591,0.219c0.235,0,0.428-0.073,0.578-0.217c0.15-0.145,0.226-0.323,0.226-0.533c0-0.219-0.077-0.403-0.232-0.553
	c-0.155-0.149-0.348-0.224-0.578-0.224c-0.233,0-0.427,0.073-0.58,0.219C698.2,79.96,698.123,80.135,698.124,80.339L698.124,80.339
	L698.124,80.339z M697.926,82.585c0,0.17,0.041,0.335,0.124,0.494c0.082,0.159,0.205,0.283,0.368,0.37
	c0.162,0.087,0.338,0.131,0.525,0.131c0.292,0,0.533-0.092,0.723-0.275c0.19-0.184,0.285-0.417,0.285-0.7
	c0-0.288-0.098-0.525-0.293-0.713c-0.196-0.188-0.441-0.282-0.735-0.282c-0.287,0-0.525,0.093-0.714,0.279
	C698.021,82.074,697.926,82.307,697.926,82.585L697.926,82.585z"/>
<g id="g2881" transform="matrix(1.116511,0,0,1.092038,-220.54657,-90.643615)">
	<g id="g180" transform="matrix(2.6370022,0,0,2.5819024,852.34483,-413.51106)">
		<line id="line182" fill="#FFFFFF" stroke="#FFFFFF" stroke-linecap="round" x1="-38.943" y1="217.32" x2="-38.943" y2="224.148"/>
		
			<line id="line184" fill="#FFFFFF" stroke="#FFFFFF" stroke-linecap="round" x1="-37.391" y1="218.174" x2="-37.391" y2="223.295"/>
	</g>
	<g id="g186" transform="matrix(2.6370022,0,0,2.5819024,852.34483,-413.51106)">
		
			<line id="line188" fill="#FFFFFF" stroke="#FFFFFF" stroke-linecap="round" x1="-49.451" y1="220.734" x2="-46.782" y2="217.062"/>
		<line id="line190" fill="#FFFFFF" stroke="#FFFFFF" stroke-linecap="round" x1="-47.862" y1="221.187" x2="-45.86" y2="218.433"/>
	</g>
	<g id="g192" transform="matrix(2.6370022,0,0,2.5819024,852.34483,-413.51106)">
		<line id="line194" fill="#FFFFFF" stroke="#FFFFFF" x1="-45.436" y1="228.186" x2="-45.436" y2="230.514"/>
	</g>
	<g id="g196" transform="matrix(2.6370022,0,0,2.5819024,852.34483,-413.51106)">
		<line id="line198" fill="#FFFFFF" stroke="#FFFFFF" stroke-linecap="round" x1="-27.102" y1="224.148" x2="-30.983" y2="226.39"/>
		
			<line id="line200" fill="#FFFFFF" stroke="#FFFFFF" stroke-linecap="round" x1="-28.364" y1="223.084" x2="-31.274" y2="224.766"/>
	</g>
	<g id="g202" transform="matrix(2.6370022,0,0,2.5819024,852.34483,-413.51106)">
		<line id="line204" fill="#FFFFFF" stroke="#FFFFFF" stroke-linecap="round" x1="-33.023" y1="213.9" x2="-28.913" y2="216.274"/>
		
			<line id="line206" fill="#FFFFFF" stroke="#FFFFFF" stroke-linecap="round" x1="-33.286" y1="215.541" x2="-30.204" y2="217.321"/>
	</g>
	<g id="g208" transform="matrix(2.6370022,0,0,2.5819024,852.34483,-413.51106)">
		<line id="line210" fill="#FFFFFF" stroke="#FFFFFF" stroke-linecap="round" x1="-33.023" y1="213.9" x2="-33.023" y2="208.783"/>
	</g>
	<g id="g212" transform="matrix(2.6370022,0,0,2.5819024,852.34483,-413.51106)">
		<line id="line214" fill="#FFFFFF" stroke="#FFFFFF" stroke-linecap="round" x1="-43.4" y1="215.873" x2="-38.943" y2="217.32"/>
	</g>
	<g id="g216" transform="matrix(2.6370022,0,0,2.5819024,852.34483,-413.51106)">
		
			<line id="line218" fill="#FFFFFF" stroke="#FFFFFF" stroke-linecap="round" x1="-27.102" y1="219.131" x2="-27.102" y2="224.148"/>
	</g>
	<g id="g220" transform="matrix(2.6370022,0,0,2.5819024,852.34483,-413.51106)">
		
			<line id="line222" fill="#FFFFFF" stroke="#FFFFFF" stroke-linecap="round" x1="-38.943" y1="224.148" x2="-34.863" y2="226.505"/>
	</g>
	<g id="g224" transform="matrix(2.6370022,0,0,2.5819024,852.34483,-413.51106)">
		
			<line id="line226" fill="#FFFFFF" stroke="#FFFFFF" stroke-linecap="round" x1="-47.232" y1="223.788" x2="-49.451" y2="220.734"/>
	</g>
	<g id="g228" transform="matrix(2.6370022,0,0,2.5819024,852.34483,-413.51106)">
		<line id="line230" fill="#FFFFFF" stroke="#FFFFFF" stroke-linecap="round" x1="-38.943" y1="224.148" x2="-43.4" y2="225.598"/>
	</g>
	<g id="g232" transform="matrix(2.6370022,0,0,2.5819024,852.34483,-413.51106)">
		<line id="line234" fill="#FFFFFF" stroke="#FFFFFF" stroke-linecap="round" x1="-38.943" y1="217.32" x2="-33.023" y2="213.9"/>
	</g>
	<path id="text236" fill="#FFFFFF" stroke="#FFFFFF" stroke-miterlimit="10" d="M762.076,176.053v-7.172h0.994l3.848,5.631v-5.631
		h0.929v7.172h-0.995l-3.847-5.636v5.636H762.076z"/>
	<path id="text238" fill="#FFFFFF" stroke="#FFFFFF" stroke-miterlimit="10" d="M777.767,149.593v-7.172h0.994l3.848,5.631v-5.631
		h0.929v7.172h-0.994l-3.847-5.636v5.636H777.767z"/>
	<g id="g2611">
		<path id="path2609" fill="#FFFFFF" stroke="#FFFFFF" stroke-miterlimit="10" d="M762.076,123.108v-7.172h0.994l3.848,5.631v-5.631
			h0.929v7.172h-0.995l-3.847-5.636v5.636H762.076z"/>
		<path id="path2607" fill="#FFFFFF" stroke="#FFFFFF" stroke-miterlimit="10" d="M769.512,123.108v-7.172h0.969v2.945h3.807v-2.945
			h0.969v7.172h-0.969v-3.38h-3.807v3.38H769.512z"/>
		<path id="text240" fill="#FFFFFF" stroke="#FFFFFF" stroke-miterlimit="10" d="M779.95,124.548v0.634h-3.631
			c-0.005-0.159,0.021-0.312,0.079-0.458c0.092-0.242,0.241-0.481,0.443-0.716c0.204-0.235,0.499-0.506,0.883-0.814
			c0.596-0.479,1-0.859,1.21-1.139c0.21-0.28,0.315-0.545,0.315-0.795c0-0.262-0.095-0.482-0.286-0.662
			c-0.192-0.18-0.441-0.27-0.748-0.27c-0.325,0-0.585,0.095-0.779,0.286c-0.195,0.191-0.294,0.455-0.297,0.793l-0.694-0.07
			c0.048-0.507,0.227-0.892,0.536-1.158c0.31-0.266,0.726-0.398,1.248-0.398c0.527,0,0.945,0.143,1.252,0.429
			s0.461,0.641,0.461,1.064c0,0.216-0.046,0.427-0.135,0.635c-0.09,0.208-0.24,0.427-0.448,0.656
			c-0.209,0.23-0.555,0.546-1.04,0.947c-0.405,0.333-0.665,0.558-0.779,0.677c-0.115,0.118-0.21,0.238-0.285,0.358H779.95
			L779.95,124.548z"/>
	</g>
	<path id="text244" fill="#FFFFFF" stroke="#FFFFFF" stroke-miterlimit="10" d="M729.332,144.147v-7.172h0.994l3.847,5.631v-5.631
		h0.93v7.172h-0.995l-3.848-5.636v5.636H729.332z"/>
	<path id="text246" fill="#FFFFFF" stroke="#FFFFFF" stroke-miterlimit="10" d="M729.332,172.672v-7.172h0.994l3.847,5.631v-5.631
		h0.93v7.172h-0.995l-3.848-5.636v5.636H729.332z"/>
	<path id="text248" fill="#FFFFFF" stroke="#FFFFFF" stroke-miterlimit="10" d="M729.356,190.326v-7.172h3.248
		c0.652,0,1.148,0.065,1.489,0.194c0.339,0.129,0.611,0.356,0.814,0.682c0.203,0.326,0.304,0.686,0.304,1.081
		c0,0.509-0.168,0.938-0.505,1.286c-0.336,0.349-0.855,0.571-1.559,0.665c0.256,0.121,0.451,0.24,0.584,0.357
		c0.283,0.254,0.552,0.572,0.805,0.954l1.274,1.952h-1.219l-0.969-1.492c-0.283-0.431-0.517-0.76-0.7-0.988
		c-0.183-0.228-0.347-0.388-0.492-0.479c-0.144-0.091-0.292-0.155-0.442-0.191c-0.11-0.023-0.29-0.034-0.54-0.034h-1.125v3.185
		H729.356L729.356,190.326z M730.326,186.319h2.083c0.443,0,0.789-0.045,1.039-0.134c0.25-0.09,0.44-0.233,0.569-0.431
		c0.13-0.198,0.195-0.412,0.195-0.643c0-0.339-0.126-0.618-0.377-0.837c-0.252-0.219-0.649-0.328-1.192-0.328h-2.318V186.319z"/>
	<path id="text2708" fill="#FFFFFF" stroke="#FFFFFF" stroke-miterlimit="10" d="M776.242,154.326h-0.547v-3.485
		c-0.132,0.126-0.304,0.251-0.518,0.377c-0.214,0.126-0.406,0.22-0.576,0.283v-0.529c0.306-0.144,0.574-0.318,0.802-0.523
		c0.229-0.205,0.391-0.403,0.486-0.596h0.353V154.326z"/>
	<path id="text2728" fill="#FFFFFF" stroke="#FFFFFF" stroke-miterlimit="10" d="M776.749,161.504v0.525h-2.944
		c-0.004-0.131,0.017-0.258,0.063-0.38c0.075-0.201,0.195-0.398,0.36-0.592c0.165-0.194,0.404-0.419,0.716-0.675
		c0.485-0.397,0.812-0.711,0.981-0.943c0.171-0.232,0.255-0.451,0.255-0.658c0-0.217-0.077-0.4-0.233-0.549
		c-0.155-0.149-0.357-0.223-0.606-0.223c-0.263,0-0.473,0.079-0.632,0.237c-0.158,0.158-0.238,0.376-0.24,0.656l-0.562-0.058
		c0.038-0.419,0.183-0.739,0.434-0.959c0.252-0.22,0.589-0.33,1.012-0.33c0.428,0,0.766,0.118,1.016,0.355
		c0.248,0.237,0.373,0.531,0.373,0.881c0,0.178-0.037,0.354-0.109,0.526c-0.073,0.172-0.194,0.353-0.363,0.544
		c-0.17,0.19-0.45,0.452-0.843,0.784c-0.328,0.275-0.539,0.462-0.632,0.561c-0.093,0.098-0.17,0.197-0.231,0.296H776.749
		L776.749,161.504z"/>
	<path id="text2748" fill="#FFFFFF" stroke="#FFFFFF" stroke-miterlimit="10" d="M763.4,165.167l0.547-0.073
		c0.063,0.31,0.17,0.533,0.321,0.67c0.151,0.137,0.335,0.205,0.552,0.205c0.257,0,0.474-0.089,0.652-0.267
		c0.177-0.178,0.266-0.399,0.266-0.662c0-0.251-0.082-0.458-0.247-0.621c-0.164-0.163-0.373-0.245-0.625-0.245
		c-0.103,0-0.233,0.021-0.387,0.061l0.061-0.48c0.037,0.004,0.066,0.006,0.088,0.006c0.233,0,0.443-0.061,0.629-0.182
		c0.186-0.122,0.279-0.309,0.279-0.562c0-0.201-0.067-0.367-0.203-0.499c-0.136-0.131-0.311-0.197-0.526-0.197
		c-0.213,0-0.39,0.067-0.532,0.2s-0.234,0.334-0.274,0.602l-0.547-0.097c0.066-0.367,0.219-0.651,0.456-0.853
		s0.532-0.302,0.884-0.302c0.243,0,0.467,0.052,0.672,0.156c0.204,0.104,0.36,0.247,0.469,0.427c0.108,0.18,0.163,0.372,0.163,0.574
		c0,0.193-0.052,0.368-0.155,0.526c-0.103,0.158-0.256,0.283-0.459,0.377c0.263,0.06,0.468,0.186,0.614,0.378
		c0.146,0.191,0.219,0.431,0.219,0.719c0,0.389-0.142,0.719-0.425,0.989c-0.283,0.271-0.642,0.406-1.076,0.406
		c-0.391,0-0.715-0.116-0.974-0.349C763.584,165.84,763.437,165.539,763.4,165.167L763.4,165.167L763.4,165.167z"/>
	<path id="text2768" fill="#FFFFFF" stroke="#FFFFFF" stroke-miterlimit="10" d="M757.448,162.338v-1.067h-1.933v-0.501l2.034-2.887
		h0.446v2.887h0.602v0.501h-0.602v1.067H757.448z M757.448,160.77v-2.009l-1.395,2.009H757.448z"/>
	<path id="text2788" fill="#FFFFFF" stroke="#FFFFFF" stroke-miterlimit="10" d="M756.003,153.159l0.574-0.048
		c0.043,0.279,0.142,0.49,0.297,0.63c0.155,0.141,0.342,0.211,0.561,0.211c0.263,0,0.486-0.099,0.668-0.298
		c0.183-0.199,0.274-0.462,0.274-0.79c0-0.312-0.088-0.558-0.263-0.738c-0.175-0.18-0.404-0.271-0.688-0.271
		c-0.176,0-0.335,0.04-0.477,0.12c-0.142,0.08-0.253,0.184-0.334,0.311l-0.513-0.067l0.431-2.288h2.216v0.523h-1.778l-0.24,1.197
		c0.268-0.186,0.547-0.279,0.841-0.279c0.389,0,0.717,0.135,0.985,0.404c0.267,0.27,0.401,0.616,0.401,1.039
		c0,0.403-0.117,0.752-0.352,1.045c-0.285,0.361-0.675,0.541-1.169,0.541c-0.405,0-0.736-0.114-0.992-0.34
		C756.185,153.835,756.038,153.534,756.003,153.159L756.003,153.159z"/>
	<path id="text2808" fill="#FFFFFF" stroke="#FFFFFF" stroke-miterlimit="10" d="M766.544,146.341L766,146.383
		c-0.049-0.215-0.118-0.371-0.206-0.468c-0.148-0.156-0.331-0.234-0.548-0.234c-0.174,0-0.327,0.048-0.458,0.146
		c-0.172,0.125-0.308,0.309-0.408,0.55c-0.099,0.241-0.15,0.584-0.155,1.03c0.131-0.201,0.293-0.35,0.483-0.447
		c0.191-0.097,0.39-0.146,0.599-0.146c0.365,0,0.674,0.134,0.932,0.403c0.255,0.268,0.384,0.615,0.384,1.04
		c0,0.28-0.06,0.539-0.181,0.779s-0.286,0.424-0.497,0.552c-0.211,0.127-0.45,0.191-0.717,0.191c-0.456,0-0.827-0.168-1.114-0.503
		c-0.288-0.335-0.432-0.888-0.432-1.658c0-0.861,0.159-1.487,0.478-1.878c0.277-0.34,0.651-0.51,1.121-0.51
		c0.35,0,0.637,0.098,0.861,0.295C766.365,145.723,766.499,145.994,766.544,146.341L766.544,146.341L766.544,146.341z
		 M764.31,148.261c0,0.188,0.04,0.369,0.12,0.541c0.08,0.172,0.192,0.303,0.336,0.393c0.144,0.09,0.295,0.135,0.453,0.135
		c0.231,0,0.429-0.093,0.596-0.279c0.166-0.186,0.249-0.44,0.249-0.76c0-0.308-0.082-0.55-0.247-0.727
		c-0.164-0.177-0.37-0.266-0.619-0.266c-0.248,0-0.457,0.089-0.629,0.266C764.397,147.741,764.31,147.974,764.31,148.261
		L764.31,148.261z"/>
	<path id="text2828" fill="#FFFFFF" stroke="#FFFFFF" stroke-miterlimit="10" d="M735.394,148.298v-0.525h2.884v0.425
		c-0.283,0.302-0.565,0.703-0.843,1.203c-0.279,0.5-0.494,1.015-0.646,1.543c-0.11,0.373-0.18,0.781-0.21,1.225h-0.562
		c0.006-0.351,0.075-0.774,0.206-1.27c0.132-0.496,0.321-0.975,0.567-1.436c0.247-0.461,0.508-0.849,0.785-1.165H735.394
		L735.394,148.298z"/>
	<path id="text2836" fill="#FFFFFF" stroke="#FFFFFF" stroke-miterlimit="10" d="M730.961,157.765
		c-0.227-0.083-0.395-0.202-0.505-0.355c-0.109-0.154-0.164-0.338-0.164-0.553c0-0.324,0.117-0.596,0.35-0.817
		c0.233-0.221,0.542-0.331,0.93-0.331c0.389,0,0.701,0.113,0.938,0.339s0.356,0.501,0.356,0.825c0,0.207-0.054,0.386-0.163,0.539
		c-0.108,0.153-0.273,0.271-0.494,0.354c0.274,0.089,0.482,0.233,0.625,0.431c0.143,0.199,0.214,0.436,0.214,0.711
		c0,0.381-0.135,0.701-0.404,0.96c-0.269,0.259-0.624,0.389-1.064,0.389c-0.439,0-0.794-0.131-1.064-0.391
		c-0.269-0.26-0.404-0.585-0.404-0.974c0-0.29,0.073-0.532,0.22-0.727S730.689,157.836,730.961,157.765L730.961,157.765z
		 M730.852,156.838c0,0.211,0.067,0.383,0.203,0.517c0.136,0.134,0.312,0.2,0.529,0.2c0.211,0,0.383-0.066,0.518-0.199
		c0.135-0.133,0.202-0.295,0.202-0.488c0-0.2-0.069-0.369-0.208-0.506c-0.138-0.137-0.311-0.205-0.518-0.205
		c-0.209,0-0.382,0.067-0.52,0.201C730.92,156.492,730.852,156.652,730.852,156.838L730.852,156.838z M730.675,158.896
		c0,0.156,0.037,0.307,0.111,0.453c0.073,0.146,0.184,0.258,0.33,0.339c0.146,0.08,0.303,0.12,0.471,0.12
		c0.262,0,0.478-0.084,0.647-0.252c0.171-0.168,0.255-0.382,0.255-0.641c0-0.263-0.087-0.481-0.262-0.653
		c-0.176-0.172-0.395-0.258-0.659-0.258c-0.257,0-0.47,0.085-0.639,0.255C730.76,158.427,730.675,158.64,730.675,158.896
		L730.675,158.896z"/>
	<path id="text2844" fill="#FFFFFF" stroke="#FFFFFF" stroke-miterlimit="10" d="M735.132,162.54l0.526-0.048
		c0.045,0.247,0.13,0.426,0.255,0.537c0.125,0.112,0.286,0.167,0.483,0.167c0.168,0,0.316-0.038,0.442-0.115
		c0.127-0.077,0.231-0.18,0.311-0.309c0.081-0.128,0.15-0.302,0.204-0.521c0.055-0.219,0.082-0.442,0.082-0.668
		c0-0.025,0-0.061-0.004-0.11c-0.109,0.174-0.258,0.316-0.448,0.424c-0.189,0.109-0.395,0.163-0.616,0.163
		c-0.368,0-0.68-0.134-0.936-0.401c-0.255-0.267-0.382-0.62-0.382-1.057c0-0.452,0.133-0.816,0.4-1.091
		c0.266-0.275,0.6-0.413,1.001-0.413c0.29,0,0.555,0.078,0.795,0.234c0.24,0.156,0.422,0.378,0.547,0.667
		c0.125,0.288,0.187,0.706,0.187,1.253c0,0.569-0.062,1.023-0.185,1.36c-0.123,0.337-0.308,0.594-0.552,0.77
		c-0.244,0.176-0.53,0.264-0.858,0.264c-0.348,0-0.633-0.097-0.854-0.29C735.308,163.163,735.176,162.891,735.132,162.54
		L735.132,162.54L735.132,162.54z M737.371,160.575c0-0.314-0.083-0.563-0.251-0.748c-0.167-0.184-0.367-0.277-0.603-0.277
		c-0.243,0-0.455,0.099-0.635,0.298s-0.27,0.456-0.27,0.772c0,0.283,0.086,0.514,0.256,0.691c0.171,0.177,0.382,0.266,0.634,0.266
		c0.253,0,0.461-0.089,0.624-0.266C737.289,161.134,737.371,160.888,737.371,160.575L737.371,160.575z"/>
</g>
<path id="text2848" fill="#FFFFFF" stroke="#FFFFFF" stroke-miterlimit="10" d="M702.211,86.565l0.587-0.053
	c0.05,0.27,0.145,0.466,0.284,0.587c0.141,0.122,0.32,0.183,0.54,0.183c0.188,0,0.352-0.042,0.493-0.126s0.258-0.196,0.348-0.337
	c0.091-0.141,0.167-0.33,0.228-0.569c0.062-0.239,0.092-0.482,0.092-0.73c0-0.026,0-0.066-0.004-0.119
	c-0.122,0.19-0.288,0.344-0.5,0.463c-0.212,0.118-0.44,0.177-0.688,0.177c-0.411,0-0.76-0.146-1.045-0.438
	c-0.284-0.292-0.427-0.677-0.427-1.155c0-0.493,0.148-0.89,0.446-1.191c0.297-0.301,0.67-0.452,1.117-0.452
	c0.324,0,0.619,0.085,0.888,0.256c0.268,0.17,0.472,0.413,0.61,0.728c0.14,0.315,0.209,0.771,0.209,1.369
	c0,0.622-0.069,1.116-0.207,1.485c-0.139,0.368-0.344,0.648-0.616,0.841s-0.592,0.289-0.958,0.289c-0.389,0-0.707-0.106-0.953-0.317
	C702.408,87.245,702.26,86.948,702.211,86.565L702.211,86.565L702.211,86.565z M704.711,84.418c0-0.343-0.094-0.615-0.28-0.816
	c-0.187-0.201-0.411-0.302-0.673-0.302c-0.271,0-0.508,0.108-0.709,0.325s-0.302,0.498-0.302,0.843c0,0.31,0.095,0.562,0.286,0.755
	c0.191,0.194,0.427,0.291,0.707,0.291c0.283,0,0.516-0.097,0.697-0.291C704.62,85.03,704.711,84.761,704.711,84.418L704.711,84.418
	L704.711,84.418z"/>
<g id="g4186" transform="matrix(4.6146498,0,0,4.5182272,-1024.163,180.76476)">
	<ellipse id="ellipse4188" fill="none" stroke="#FFFFFF" stroke-linecap="round" cx="242.186" cy="-20.878" rx="1.293" ry="1.293"/>
	<line id="line4190" fill="none" stroke="#FFFFFF" stroke-linecap="round" x1="241.41" y1="-20.878" x2="242.962" y2="-20.878"/>
</g>
<text transform="matrix(1 0 0 1 304.8556 37.4052)" fill="#FFFFFF" font-family="'Helvetica'" font-size="18">pentose</text>
<text transform="matrix(1 0 0 1 379.5148 82.2001)" fill="#FFFFFF" font-family="'Helvetica'" font-size="16">Base</text>
<text transform="matrix(1 0 0 1 409.3781 119.5297)" fill="#FFFFFF" font-family="'Helvetica'" font-size="16">glycosidic bond</text>
<text transform="matrix(1 0 0 1 367.0719 153.1259)" fill="#FFFFFF" font-family="'Helvetica'" font-size="20">OH = ribose</text>
<text transform="matrix(1 0 0 1 383.0367 171.4882)" fill="#FFFFFF" font-family="'Helvetica'" font-size="20">H = deoxyribose</text>
<path id="text2508" fill="#FFFFFF" d="M285.304,154.37v-14.316h1.895v5.879h7.441v-5.879h1.895v14.316h-1.895v-6.748h-7.441v6.748
	H285.304z M299.123,147.397c0-2.376,0.639-4.236,1.914-5.581c1.276-1.344,2.924-2.017,4.941-2.017c1.321,0,2.513,0.316,3.574,0.947
	c1.062,0.632,1.87,1.512,2.427,2.642c0.557,1.13,0.835,2.41,0.835,3.843c0,1.452-0.293,2.751-0.879,3.896s-1.416,2.014-2.49,2.603
	c-1.074,0.59-2.233,0.884-3.477,0.884c-1.348,0-2.552-0.325-3.613-0.977c-1.061-0.651-1.865-1.54-2.412-2.666
	S299.123,148.654,299.123,147.397L299.123,147.397z M301.076,147.427c0,1.726,0.464,3.085,1.392,4.077
	c0.928,0.993,2.092,1.489,3.491,1.489c1.426,0,2.6-0.501,3.521-1.504s1.382-2.425,1.382-4.268c0-1.165-0.197-2.183-0.591-3.052
	s-0.97-1.543-1.729-2.021s-1.609-0.718-2.554-0.718c-1.341,0-2.495,0.461-3.462,1.382
	C301.559,143.734,301.076,145.272,301.076,147.427L301.076,147.427z"/>
<text transform="matrix(1 0 0 1 634.5983 21.2289)" fill="#FFFFFF" font-family="'Helvetica'" font-size="22">Purines</text>
<text transform="matrix(1 0 0 1 614.6891 169.3026)" fill="#FFFFFF" font-family="'Helvetica'" font-size="22">Pyrimidines</text>
<text transform="matrix(1 0 0 1 296.1456 195.4325)" fill="#FFFFFF" font-family="'Helvetica'" font-size="16.5">nucleoside</text>
<text transform="matrix(1 0 0 1 184.5699 222.2186)" fill="#FFFFFF" font-family="'Helvetica'" font-size="16.5">nucleoside monophosphate</text>
<text transform="matrix(1 0 0 1 185.2931 247.9159)" fill="#FFFFFF" font-family="'Helvetica'" font-size="16.5">nucleoside diphosphate</text>
<text transform="matrix(1 0 0 1 184.3605 274.9784)" fill="#FFFFFF" font-family="'Helvetica'" font-size="16.5">nucleoside triphosphate</text>
<text transform="matrix(1 0 0 1 583.1549 140.0214)" fill="#FFFFFF" font-family="'Helvetica'" font-size="14">Adenine (A)</text>
<text transform="matrix(1 0 0 1 696.1549 140.0214)" fill="#FFFFFF" font-family="'Helvetica'" font-size="14">Guanine (G)</text>
<text transform="matrix(1 0 0 1 519.2096 280.0214)" fill="#FFFFFF" font-family="'Helvetica'" font-size="14">Cytosine (C)</text>
<text transform="matrix(1 0 0 1 626.1715 280.0214)" fill="#FFFFFF" font-family="'Helvetica'" font-size="14">Uracil (U)</text>
<text transform="matrix(1 0 0 1 736.6891 280.5214)" fill="#FFFFFF" font-family="'Helvetica'" font-size="14">Thymine (T)</text>
</svg>
